<svg width="24" height="17" viewBox="0 0 24 17" fill="none" xmlns="http://www.w3.org/2000/svg">
<g id="65f5f844fc140df2f7491d87_Youtube.svg" clip-path="url(#clip0_10_1308)">
<path id="Vector" d="M22.0664 3.71165C21.9444 3.27241 21.7045 2.86978 21.3709 2.54441C21.0375 2.22312 20.6267 1.99131 20.1711 1.8693C18.4996 1.43005 11.7891 1.43005 11.7891 1.43005C11.7891 1.43005 5.07441 1.43005 3.40693 1.8693C2.95142 1.98723 2.54065 2.21906 2.20715 2.54441C1.87367 2.86571 1.63777 3.26835 1.5117 3.71165C1.2026 5.36693 1.04806 7.04661 1.06026 8.73036C1.04806 10.4141 1.19854 12.0938 1.5117 13.749C1.63371 14.1883 1.87367 14.5909 2.20715 14.9163C2.54065 15.2376 2.95142 15.4694 3.40693 15.5914C5.07847 16.0306 11.7891 16.0306 11.7891 16.0306C11.7891 16.0306 18.5037 16.0306 20.1711 15.5914C20.6267 15.4734 21.0375 15.2416 21.3709 14.9163C21.7045 14.595 21.9403 14.1923 22.0664 13.749C22.3795 12.0938 22.5301 10.4141 22.5178 8.73036C22.5301 7.04661 22.3795 5.36693 22.0664 3.71165ZM9.64574 11.8579V5.60281L15.2176 8.73036L9.64574 11.8579Z" fill="#0E0D0C"/>
</g>
<defs>
<clipPath id="clip0_10_1308">
<rect width="22.84" height="15.988" fill="white" transform="translate(0.580017 0.58606)"/>
</clipPath>
</defs>
</svg>
