<svg width="15" height="15" viewBox="0 0 15 15" fill="none" xmlns="http://www.w3.org/2000/svg">
<path d="M2.05078 2.07031C2.05078 2.07031 2.39258 1.72526 3.07617 1.03516C3.75977 0.345052 5.07812 0 7.03125 0C8.98438 0 10.6445 0.690104 12.0117 2.07031C13.3789 3.45052 14.0625 5.11068 14.0625 7.05078C14.0625 8.99089 13.3789 10.651 12.0117 12.0312C10.6445 13.4115 8.98438 14.1016 7.03125 14.1016C5.07812 14.1016 3.41797 13.4115 2.05078 12.0312C0.683594 10.651 0 8.99089 0 7.05078C0 5.11068 0.683594 3.45052 2.05078 2.07031ZM6.13281 2.8125V4.14062H7.92969V2.8125H6.13281ZM8.51562 11.1719V9.84375H7.92969V5.27344H6.17188H5.54688V6.44531H6.13281V9.84375H5.54688V11.1719H6.17188H7.89062H8.51562Z" fill="#396895"/>
</svg>
