<svg width="28" height="22" viewBox="0 0 28 22" fill="none" xmlns="http://www.w3.org/2000/svg">
    <path d="M24.6665 0.5C26.3071 0.5 27.6665 1.85938 27.6665 3.5V5L0.666504 5L0.666504 3.5C0.666504 1.85938 1.979 0.5 3.6665 0.5L24.6665 0.5ZM27.6665 18.5C27.6665 20.1875 26.3071 21.5 24.6665 21.5H3.6665C1.979 21.5 0.666504 20.1875 0.666504 18.5L0.666504 9.5H27.6665V18.5ZM5.9165 15.5C5.49463 15.5 5.1665 15.875 5.1665 16.25C5.1665 16.6719 5.49463 17 5.9165 17H8.9165C9.2915 17 9.6665 16.6719 9.6665 16.25C9.6665 15.875 9.2915 15.5 8.9165 15.5H5.9165ZM11.9165 17H17.9165C18.2915 17 18.6665 16.6719 18.6665 16.25C18.6665 15.875 18.2915 15.5 17.9165 15.5H11.9165C11.4946 15.5 11.1665 15.875 11.1665 16.25C11.1665 16.6719 11.4946 17 11.9165 17Z" fill="#0258FD"/>
</svg>