<svg width="25" height="25" viewBox="0 0 25 25" fill="none" xmlns="http://www.w3.org/2000/svg">
<g clip-path="url(#clip0_126_23556)">
<path d="M12.0683 13.9376C12.6207 13.9376 13.0684 13.4898 13.0684 12.9375C13.0684 12.3852 12.6207 11.9375 12.0683 11.9375C11.5161 11.9375 11.0684 12.3852 11.0684 12.9375C11.0684 13.4898 11.5161 13.9376 12.0683 13.9376Z" stroke="#98A1C0" stroke-width="1.8" stroke-linecap="round" stroke-linejoin="round"/>
<path d="M19.0684 13.9376C19.6207 13.9376 20.0684 13.4898 20.0684 12.9375C20.0684 12.3852 19.6207 11.9375 19.0684 11.9375C18.5161 11.9375 18.0684 12.3852 18.0684 12.9375C18.0684 13.4898 18.5161 13.9376 19.0684 13.9376Z" stroke="#98A1C0" stroke-width="1.8" stroke-linecap="round" stroke-linejoin="round"/>
<path d="M5.06837 13.9376C5.62064 13.9376 6.06836 13.4898 6.06836 12.9375C6.06836 12.3852 5.62064 11.9375 5.06837 11.9375C4.51608 11.9375 4.06836 12.3852 4.06836 12.9375C4.06836 13.4898 4.51608 13.9376 5.06837 13.9376Z" stroke="#98A1C0" stroke-width="1.8" stroke-linecap="round" stroke-linejoin="round"/>
</g>
<defs>
<clipPath id="clip0_126_23556">
<rect width="24" height="24" fill="white" transform="translate(0.0683594 0.9375)"/>
</clipPath>
</defs>
</svg>
