<svg width="24" height="24" viewBox="0 0 24 24" fill="none" xmlns="http://www.w3.org/2000/svg">
<path d="M10 2C5.589 2 2 5.589 2 10C2 14.411 5.589 18 10 18C14.411 18 18 14.411 18 10C18 5.589 14.411 2 10 2ZM10 16C6.691 16 4 13.309 4 10C4 6.691 6.691 4 10 4C13.309 4 16 6.691 16 10C16 13.309 13.309 16 10 16ZM21.707 20.293L17.028 15.614C17.024 15.619 17.02 15.624 17.015 15.63C16.314 16.503 16.331 17.746 17.122 18.537L20.292 21.707C20.487 21.902 20.743 22 20.999 22C21.255 22 21.511 21.902 21.706 21.707C22.098 21.316 22.098 20.684 21.707 20.293Z" fill="#484A57"/>
</svg>
