<svg width="84" height="84" viewBox="0 0 84 84" fill="none" xmlns="http://www.w3.org/2000/svg">
<rect x="7.37" y="7.37" width="69.26" height="69.26" rx="34.63" fill="#141828"/>
<path fill-rule="evenodd" clip-rule="evenodd" d="M38.3526 36.9242C38.2928 37.1549 38.1885 37.3715 38.0455 37.5618C37.7793 37.9088 37.427 38.1794 37.0239 38.3466C36.6614 38.5035 36.2774 38.605 35.8849 38.6475C35.8042 38.6578 35.7206 38.6641 35.6395 38.6703L35.6263 38.6713C35.3777 38.6808 35.1387 38.77 34.9442 38.9258C34.7497 39.0817 34.61 39.296 34.5455 39.5373C34.516 39.6574 34.494 39.7792 34.4798 39.9021C34.4572 40.0874 34.4456 40.2771 34.433 40.4823C34.424 40.6295 34.4144 40.7848 34.4 40.9521C34.3156 41.6337 34.1193 42.2965 33.8192 42.9136C33.7579 43.0433 33.6954 43.1691 33.6339 43.2926C33.3049 43.9546 33.0076 44.5526 33.0929 45.3535C33.1597 45.9706 33.4744 46.3841 33.8925 46.8106C34.0911 47.0146 34.3544 47.1889 34.6277 47.3699C35.3927 47.8763 36.2361 48.4347 35.9582 49.8415C35.7308 50.9814 33.8494 52.1776 31.205 52.5954C31.4615 52.5563 30.8965 51.5879 30.8338 51.4804L30.83 51.4739C30.7571 51.3592 30.6824 51.2462 30.6079 51.1334C30.3927 50.8076 30.1783 50.4835 30.0111 50.1241C29.5693 49.1856 29.3645 48.0998 29.5455 47.0714C29.7095 46.1407 30.3221 45.3972 30.9118 44.6813C31.008 44.5646 31.1035 44.4487 31.1964 44.3328C31.9852 43.3488 32.8128 42.0595 32.9959 40.7822C33.0114 40.6712 33.0252 40.5502 33.0397 40.4229C33.0657 40.195 33.0939 39.9469 33.1382 39.6997C33.2039 39.2728 33.3371 38.8591 33.5326 38.4743C33.666 38.222 33.8417 37.9946 34.052 37.8021C34.1616 37.6999 34.2339 37.5637 34.2574 37.4153C34.2808 37.267 34.254 37.115 34.1813 36.9837L29.9658 29.3673L36.0207 36.8733C36.0897 36.9603 36.1768 37.031 36.276 37.0803C36.3752 37.1296 36.484 37.1564 36.5946 37.1588C36.7053 37.1612 36.8151 37.1391 36.9163 37.094C37.0175 37.049 37.1076 36.9821 37.1802 36.8982C37.2569 36.8084 37.3004 36.6947 37.3033 36.5763C37.3063 36.458 37.2685 36.3423 37.1963 36.2487C36.9148 35.8873 36.6218 35.521 36.3302 35.1563C36.2122 35.0088 36.0943 34.8613 35.9776 34.7148L34.4539 32.8205L31.3957 29.0382L28 25L31.788 28.6994L35.0433 32.3149L36.6673 34.127C36.8165 34.2958 36.9657 34.4631 37.1148 34.6303C37.5044 35.0671 37.894 35.5039 38.2836 35.9673L38.372 36.0755L38.3914 36.2433C38.4176 36.4708 38.4045 36.7012 38.3526 36.9242ZM53.9247 39.4697L53.9311 39.4795C53.93 38.6719 53.4322 37.3394 52.4247 36.0577L52.401 36.0263C52.0906 35.641 51.7524 35.2792 51.3891 34.9438C51.3212 34.8778 51.248 34.8128 51.1736 34.7479C50.7081 34.3401 50.1993 33.985 49.6564 33.6892L49.6176 33.6697C47.9118 32.7366 45.692 32.256 42.9549 32.7972C42.5873 32.3489 42.1914 31.9248 41.7696 31.5275C41.1236 30.9091 40.3632 30.4241 39.5315 30.0997C38.7072 29.7966 37.8244 29.6884 36.9517 29.7836C37.7929 29.8597 38.6123 30.0947 39.3666 30.4764C40.0951 30.8685 40.7512 31.3833 41.3062 31.9984C41.8688 32.6263 42.3976 33.2839 42.8903 33.9685L43.0139 34.1302C43.496 34.7609 43.9868 35.403 44.5982 35.9744C44.9348 36.2925 45.3103 36.5664 45.7157 36.7895C45.8234 36.8447 45.9323 36.8966 46.039 36.9421C46.1456 36.9876 46.2458 37.0298 46.3536 37.0688C46.5616 37.1499 46.7771 37.2171 46.9926 37.2788C47.8547 37.5256 48.7372 37.6143 49.5993 37.662C49.7192 37.6683 49.8389 37.6742 49.9581 37.6801C50.266 37.6954 50.5713 37.7105 50.8719 37.7323C51.2837 37.7569 51.6922 37.8214 52.0917 37.925C52.6918 38.0822 53.2201 38.4413 53.5885 38.9425C53.7137 39.1095 53.8261 39.2857 53.9247 39.4697ZM51.4013 34.9451C51.358 34.9049 51.3139 34.8651 51.27 34.8254C51.2418 34.7999 51.2136 34.7745 51.1858 34.7491C51.2073 34.7688 51.2288 34.7887 51.2503 34.8087C51.3009 34.8556 51.3514 34.9025 51.4013 34.9451ZM50.3238 42.9172C47.5516 41.7872 44.6518 40.6051 45.0835 37.2875C46.0091 38.2802 47.462 38.4884 49.0422 38.7149C50.4757 38.9203 52.0139 39.1407 53.3583 39.9753C56.5306 41.9433 56.0673 45.7666 54.9897 47.1739C55.0869 44.8587 52.7544 43.908 50.3238 42.9172ZM39.1551 41.2567C39.8868 41.1863 41.4461 40.8042 40.7489 39.5712C40.5989 39.3204 40.3815 39.1172 40.1217 38.9848C39.8619 38.8525 39.5702 38.7965 39.2801 38.8232C38.9858 38.855 38.7082 38.9769 38.4852 39.1725C38.2622 39.3681 38.1044 39.6278 38.0334 39.9165C37.8168 40.723 38.0463 41.3649 39.1551 41.2567ZM38.9448 31.5014C38.4858 30.9688 37.7735 30.6895 37.0752 30.5878C37.0491 30.7625 37.0326 30.9385 37.0257 31.115C36.9944 32.5687 37.5084 34.1654 38.503 35.275C38.8212 35.6337 39.2049 35.9276 39.6334 36.141C39.8812 36.2622 40.5386 36.5631 40.7821 36.2925C40.8006 36.2677 40.8123 36.2384 40.8159 36.2076C40.8195 36.1768 40.8149 36.1456 40.8026 36.1172C40.7622 36.0013 40.6843 35.8961 40.6069 35.7917C40.552 35.7177 40.4974 35.6441 40.4567 35.5672C40.4155 35.4898 40.3714 35.4142 40.3274 35.3388C40.2447 35.197 40.1622 35.0555 40.0989 34.9015C39.9319 34.4984 39.845 34.0698 39.7583 33.6425C39.741 33.5571 39.7236 33.4712 39.7056 33.386C39.5731 32.7268 39.4039 32.034 38.9448 31.5014ZM48.7524 43.098C48.0403 45.0943 49.1888 46.7804 50.3306 48.4566C51.6077 50.3315 52.8764 52.194 51.5228 54.4642C54.1532 53.3731 55.4021 50.0769 54.3105 47.4616C53.6227 45.8074 51.9649 44.9106 50.4261 44.0783C49.8291 43.7554 49.2499 43.4421 48.7524 43.098ZM41.0552 47.8633C40.5785 48.0587 40.129 48.3152 39.7179 48.6265C40.6527 48.2859 41.6339 48.0914 42.6274 48.0495C42.8074 48.0388 42.9887 48.0304 43.1715 48.0219C43.4873 48.0073 43.8085 47.9925 44.136 47.9651C44.6729 47.9285 45.2025 47.8192 45.7103 47.6403C46.2425 47.4533 46.7268 47.1501 47.1284 46.7527C47.5342 46.3424 47.8188 45.8272 47.9506 45.2642C48.0666 44.7324 48.0503 44.1801 47.9032 43.6562C47.756 43.1322 47.4825 42.6528 47.1069 42.2603C47.2881 42.7221 47.3996 43.2084 47.4377 43.7033C47.4705 44.164 47.4081 44.6265 47.2545 45.0618C47.1045 45.4744 46.8593 45.8454 46.539 46.1443C46.2081 46.4462 45.825 46.6846 45.4086 46.8479C44.8299 47.0821 44.1755 47.1779 43.4939 47.2777C43.183 47.3232 42.8664 47.3696 42.5487 47.4303C42.0378 47.5243 41.5374 47.6694 41.0552 47.8633ZM49.3187 56.1046L49.273 56.1415C49.1525 56.2388 49.0301 56.3379 48.8982 56.4268C48.7301 56.538 48.554 56.6365 48.3713 56.7212C47.9908 56.9077 47.5726 57.0029 47.1493 56.9994C46.0028 56.9778 45.1924 56.1205 44.7183 55.1516C44.594 54.8977 44.4845 54.6359 44.375 54.3741C44.1997 53.9551 44.0244 53.5361 43.7883 53.149C43.2399 52.2495 42.3013 51.5253 41.2022 51.6595C40.7539 51.7158 40.3336 51.9182 40.0847 52.309C39.4295 53.3298 40.3703 54.7598 41.5696 54.5573C41.6716 54.5417 41.7714 54.5141 41.867 54.4751C41.9623 54.4343 42.0512 54.38 42.131 54.3138C42.2986 54.1736 42.4248 53.9903 42.4963 53.7834C42.5751 53.5676 42.5926 53.3341 42.547 53.109C42.4978 52.8736 42.3594 52.6668 42.1612 52.532C42.3917 52.6404 42.5713 52.8345 42.6623 53.0732C42.7566 53.319 42.7809 53.5862 42.7323 53.8451C42.6852 54.1147 42.5669 54.3667 42.3896 54.5747C42.2955 54.6816 42.1866 54.7746 42.0664 54.8507C41.9472 54.9259 41.8195 54.9866 41.686 55.0315C41.4153 55.1244 41.1272 55.1544 40.8433 55.1192C40.4447 55.0621 40.0688 54.8983 39.755 54.645C39.697 54.599 39.6414 54.5508 39.5875 54.5008C39.374 54.3158 39.1802 54.1087 39.0093 53.8829C38.9326 53.7981 38.8547 53.7144 38.7733 53.634C38.3891 53.229 37.9358 52.8965 37.4349 52.6522C37.0895 52.4998 36.728 52.3872 36.3574 52.3166C36.1709 52.2776 35.9824 52.2495 35.7938 52.2257C35.7733 52.2236 35.734 52.2167 35.685 52.2082C35.5276 52.1807 35.2711 52.136 35.2259 52.178C35.8088 51.639 36.4441 51.1603 37.1224 50.7491C37.8189 50.334 38.5667 50.0126 39.3466 49.7933C40.1551 49.5647 41.0009 49.4995 41.8347 49.6017C42.2639 49.6535 42.6843 49.7627 43.0847 49.9264C43.5042 50.0948 43.8914 50.3351 44.2291 50.6366C44.5632 50.9528 44.8333 51.3311 45.0243 51.7504C45.1968 52.1431 45.3254 52.5537 45.4079 52.9747C45.4521 53.2013 45.4855 53.4502 45.5199 53.7079C45.677 54.8822 45.8585 56.2372 47.2043 56.4733C47.2898 56.49 47.3761 56.5023 47.4629 56.5102L47.7312 56.5166C47.9157 56.5034 48.099 56.477 48.2797 56.4376C48.6541 56.3492 49.019 56.2241 49.3691 56.0642L49.3187 56.1046ZM39.0801 53.9619C39.1123 53.9989 39.1449 54.0355 39.1779 54.0718C39.1644 54.0567 39.151 54.0415 39.1375 54.0264C39.1184 54.0049 39.0993 53.9834 39.0801 53.9619Z" fill="white"/>
<rect x="7.37" y="7.37" width="69.26" height="69.26" rx="34.63" stroke="white" stroke-width="13.26"/>
</svg>
