<svg width="186" height="41" viewBox="0 0 186 41" fill="none" xmlns="http://www.w3.org/2000/svg">
<g clip-path="url(#clip0_672_22048)">
<path d="M61.1045 0.276367H20.8265L0.6875 20.4154L20.8265 40.5544H61.1045L81.2909 20.4154L61.1045 0.276367Z" fill="white"/>
<path d="M81.2919 20.4154L61.1055 0.276367V40.5544L81.2919 20.4154Z" fill="#77B212"/>
<path d="M40.9671 20.4154L61.1061 0.276367H20.8281L40.9671 20.4154Z" fill="#77B212"/>
<path d="M0.6875 20.4154L20.8265 40.5544V0.276367L0.6875 20.4154Z" fill="#77B212"/>
<path d="M40.9671 20.416L20.8281 40.555H61.1061L40.9671 20.416Z" fill="#77B212"/>
<path d="M98.9657 21.6472H91.6682V28.8498H88.0195V11.9805H91.6682V18.8988H98.9657V11.9805H102.614V28.8498H98.9657V21.6472Z" fill="black"/>
<path d="M111.383 29.1827C107.734 29.1827 104.749 27.7137 104.701 23.6859H108.35C108.397 25.4866 109.44 26.5764 111.43 26.5764C112.899 26.5764 114.605 25.8183 114.605 24.1598C114.605 22.8329 113.468 22.4539 111.572 21.8852L110.34 21.5535C107.686 20.7954 105.033 19.7529 105.033 16.7202C105.033 12.9767 108.539 11.6973 111.714 11.6973C114.984 11.6973 117.827 12.8345 117.874 16.578H114.226C114.084 15.0617 113.183 14.1613 111.477 14.1613C110.103 14.1613 108.776 14.8721 108.776 16.3885C108.776 17.6205 109.914 17.9996 112.283 18.7578L113.704 19.1842C116.595 20.0846 118.443 21.0797 118.443 23.9228C118.443 27.7137 114.7 29.1827 111.383 29.1827Z" fill="black"/>
<path d="M120.479 11.981H126.354C127.444 11.9336 128.582 11.981 129.671 12.1705C131.709 12.6444 133.273 13.9712 133.273 16.2457C133.273 18.4254 131.899 19.5153 129.908 20.0366C132.183 20.463 133.889 21.6003 133.889 24.1117C133.889 27.95 130.098 28.8029 127.16 28.8029H120.526L120.479 11.981ZM126.354 18.9941C127.965 18.9941 129.624 18.6624 129.624 16.7195C129.624 14.9663 128.108 14.4924 126.591 14.4924H124.032V18.9941H126.354ZM126.686 26.3389C128.392 26.3389 130.05 25.9598 130.05 23.8748C130.05 21.7898 128.629 21.4107 126.876 21.4107H123.985V26.3389H126.686Z" fill="black"/>
<path d="M143.413 29.1832C137.964 29.1832 135.547 25.724 135.547 20.5589C135.547 15.3939 138.248 11.6504 143.602 11.6504C146.967 11.6504 150.237 13.1667 150.331 16.9576H146.54C146.351 15.2517 145.214 14.3988 143.602 14.3988C140.285 14.3988 139.29 17.9527 139.29 20.6537C139.29 23.3547 140.285 26.4822 143.46 26.4822C145.119 26.4822 146.351 25.5818 146.588 23.8759H150.379C150 27.7616 146.919 29.1832 143.413 29.1832Z" fill="black"/>
<path d="M163.601 29.1342C159.431 29.1342 157.156 26.8122 157.156 22.6897V11.9805H158.767V22.121C158.767 23.4479 158.767 24.7747 159.526 25.9119C160.426 27.2861 162.084 27.8547 163.648 27.8547C165.496 27.8547 167.297 27.0492 168.102 25.2959C168.481 24.3008 168.624 23.2109 168.529 22.121V11.9805H170.14V22.6423C170.045 26.6701 167.629 29.1342 163.601 29.1342Z" fill="black"/>
<path d="M173.361 11.9805H174.878V28.8498H173.361V11.9805ZM174.972 19.7044L182.507 11.9805H184.544L176.821 19.6096L185.35 28.8972H183.265L174.972 19.7044Z" fill="black"/>
</g>
<defs>
<clipPath id="clip0_672_22048">
<rect width="185.8" height="40.278" fill="white" transform="translate(0.0253906 0.276367)"/>
</clipPath>
</defs>
</svg>
