<svg width="29" height="33" viewBox="0 0 29 33" fill="none" xmlns="http://www.w3.org/2000/svg">
<path fill-rule="evenodd" clip-rule="evenodd" d="M11.0467 12.8617C10.9869 13.0924 10.8826 13.309 10.7396 13.4993C10.4734 13.8463 10.1211 14.1169 9.71799 14.2841C9.35549 14.441 8.97149 14.5425 8.57899 14.585C8.49829 14.5953 8.41469 14.6016 8.33359 14.6078L8.32039 14.6088C8.07179 14.6183 7.83279 14.7075 7.63829 14.8633C7.44379 15.0192 7.30409 15.2335 7.23959 15.4748C7.21009 15.5949 7.18809 15.7167 7.17389 15.8396C7.15129 16.0249 7.13969 16.2146 7.12709 16.4198C7.11809 16.567 7.10849 16.7223 7.09409 16.8896C7.00969 17.5712 6.81339 18.234 6.51329 18.8511C6.45199 18.9808 6.38949 19.1066 6.32799 19.2301C5.99899 19.8921 5.70169 20.4901 5.78699 21.291C5.85379 21.9081 6.16849 22.3216 6.58659 22.7481C6.78519 22.9521 7.04849 23.1264 7.32179 23.3074C8.08679 23.8138 8.93019 24.3722 8.65229 25.779C8.42489 26.9189 6.54349 28.1151 3.89909 28.5329C4.15559 28.4938 3.59059 27.5254 3.52789 27.4179L3.52409 27.4114C3.45119 27.2967 3.37649 27.1837 3.30199 27.0709C3.08679 26.7451 2.87239 26.421 2.70519 26.0616C2.26339 25.1231 2.05859 24.0373 2.23959 23.0089C2.40359 22.0782 3.01619 21.3347 3.60589 20.6188C3.70209 20.5021 3.79759 20.3862 3.89049 20.2703C4.67929 19.2863 5.50689 17.997 5.68999 16.7197C5.70549 16.6087 5.71929 16.4877 5.73379 16.3604C5.75979 16.1325 5.78799 15.8844 5.83229 15.6372C5.89799 15.2103 6.03119 14.7966 6.22669 14.4118C6.36009 14.1595 6.53579 13.9321 6.74609 13.7396C6.85569 13.6374 6.92799 13.5012 6.95149 13.3528C6.97489 13.2045 6.94809 13.0525 6.87539 12.9212L2.65989 5.3048L8.71479 12.8108C8.78379 12.8978 8.87089 12.9685 8.97009 13.0178C9.06929 13.0671 9.17809 13.0939 9.28869 13.0963C9.39939 13.0987 9.50919 13.0766 9.61039 13.0315C9.71159 12.9865 9.80169 12.9196 9.87429 12.8357C9.95099 12.7459 9.99449 12.6322 9.99739 12.5138C10.0004 12.3955 9.96259 12.2798 9.89039 12.1862C9.60889 11.8248 9.31589 11.4585 9.02429 11.0938C8.90629 10.9463 8.78839 10.7988 8.67169 10.6523L7.14799 8.758L4.08979 4.9757L0.694092 0.9375L4.48209 4.6369L7.73739 8.2524L9.36139 10.0645C9.51059 10.2333 9.65979 10.4006 9.80889 10.5678C10.1985 11.0046 10.5881 11.4414 10.9777 11.9048L11.0661 12.013L11.0855 12.1808C11.1117 12.4083 11.0986 12.6387 11.0467 12.8617ZM26.6188 15.4072L26.6252 15.417C26.6241 14.6094 26.1263 13.2769 25.1188 11.9952L25.0951 11.9638C24.7847 11.5785 24.4465 11.2167 24.0832 10.8813C24.0153 10.8153 23.9421 10.7503 23.8677 10.6854C23.4022 10.2776 22.8934 9.9225 22.3505 9.6267L22.3117 9.6072C20.6059 8.6741 18.3861 8.1935 15.649 8.7347C15.2814 8.2864 14.8855 7.8623 14.4637 7.465C13.8177 6.8466 13.0573 6.3616 12.2256 6.0372C11.4013 5.7341 10.5185 5.6259 9.64579 5.7211C10.487 5.7972 11.3064 6.0322 12.0607 6.4139C12.7892 6.806 13.4453 7.3208 14.0003 7.9359C14.5629 8.5638 15.0917 9.2214 15.5844 9.906L15.708 10.0677C16.1901 10.6984 16.6809 11.3405 17.2923 11.9119C17.6289 12.23 18.0044 12.5039 18.4098 12.727C18.5175 12.7822 18.6264 12.8341 18.7331 12.8796C18.8397 12.9251 18.9399 12.9673 19.0477 13.0063C19.2557 13.0874 19.4712 13.1546 19.6867 13.2163C20.5488 13.4631 21.4313 13.5518 22.2934 13.5995C22.4133 13.6058 22.533 13.6117 22.6522 13.6176C22.9601 13.6329 23.2654 13.648 23.566 13.6698C23.9778 13.6944 24.3863 13.7589 24.7858 13.8625C25.3859 14.0197 25.9142 14.3788 26.2826 14.88C26.4078 15.047 26.5202 15.2232 26.6188 15.4072ZM24.0954 10.8826C24.0521 10.8424 24.008 10.8026 23.9641 10.7629C23.9359 10.7374 23.9077 10.712 23.8799 10.6866C23.9014 10.7063 23.9229 10.7262 23.9444 10.7462C23.995 10.7931 24.0455 10.84 24.0954 10.8826ZM23.0179 18.8547C20.2457 17.7247 17.3459 16.5426 17.7776 13.225C18.7032 14.2177 20.1561 14.4259 21.7363 14.6524C23.1698 14.8578 24.708 15.0782 26.0524 15.9128C29.2247 17.8808 28.7614 21.7041 27.6838 23.1114C27.781 20.7962 25.4485 19.8455 23.0179 18.8547ZM11.8492 17.1942C12.5809 17.1238 14.1402 16.7417 13.443 15.5087C13.293 15.2579 13.0756 15.0547 12.8158 14.9223C12.556 14.79 12.2643 14.734 11.9742 14.7607C11.6799 14.7925 11.4023 14.9144 11.1793 15.11C10.9563 15.3056 10.7985 15.5653 10.7275 15.854C10.5109 16.6605 10.7404 17.3024 11.8492 17.1942ZM11.6389 7.4389C11.1799 6.9063 10.4676 6.627 9.76929 6.5253C9.74319 6.7 9.72669 6.876 9.71979 7.0525C9.68849 8.5062 10.2025 10.1029 11.1971 11.2125C11.5153 11.5712 11.899 11.8651 12.3275 12.0785C12.5753 12.1997 13.2327 12.5006 13.4762 12.23C13.4947 12.2052 13.5064 12.1759 13.51 12.1451C13.5136 12.1143 13.509 12.0831 13.4967 12.0547C13.4563 11.9388 13.3784 11.8336 13.301 11.7292C13.2461 11.6552 13.1915 11.5816 13.1508 11.5047C13.1096 11.4273 13.0655 11.3517 13.0215 11.2763C12.9388 11.1345 12.8563 10.993 12.793 10.839C12.626 10.4359 12.5391 10.0073 12.4524 9.58C12.4351 9.4946 12.4177 9.4087 12.3997 9.3235C12.2672 8.6643 12.098 7.9715 11.6389 7.4389ZM21.4465 19.0355C20.7344 21.0318 21.8829 22.7179 23.0247 24.3941C24.3018 26.269 25.5705 28.1315 24.2169 30.4017C26.8473 29.3106 28.0962 26.0144 27.0046 23.3991C26.3168 21.7449 24.659 20.8481 23.1202 20.0158C22.5232 19.6929 21.944 19.3796 21.4465 19.0355ZM13.7493 23.8008C13.2726 23.9962 12.8231 24.2527 12.412 24.564C13.3468 24.2234 14.328 24.0289 15.3215 23.987C15.5015 23.9763 15.6828 23.9679 15.8656 23.9594C16.1814 23.9448 16.5026 23.93 16.8301 23.9026C17.367 23.866 17.8966 23.7567 18.4044 23.5778C18.9366 23.3908 19.4209 23.0876 19.8225 22.6902C20.2283 22.2799 20.5129 21.7647 20.6447 21.2017C20.7607 20.6699 20.7444 20.1176 20.5973 19.5937C20.4501 19.0697 20.1766 18.5903 19.801 18.1978C19.9822 18.6596 20.0937 19.1459 20.1318 19.6408C20.1646 20.1015 20.1022 20.564 19.9486 20.9993C19.7986 21.4119 19.5534 21.7829 19.2331 22.0818C18.9022 22.3837 18.5191 22.6221 18.1027 22.7854C17.524 23.0196 16.8696 23.1154 16.188 23.2152C15.8771 23.2607 15.5605 23.3071 15.2428 23.3678C14.7319 23.4618 14.2315 23.6069 13.7493 23.8008ZM22.0128 32.0421L21.9671 32.079C21.8466 32.1763 21.7242 32.2754 21.5923 32.3643C21.4242 32.4755 21.2481 32.574 21.0654 32.6587C20.6849 32.8452 20.2667 32.9404 19.8434 32.9369C18.6969 32.9153 17.8865 32.058 17.4124 31.0891C17.2881 30.8352 17.1786 30.5734 17.0691 30.3116C16.8938 29.8926 16.7185 29.4736 16.4824 29.0865C15.934 28.187 14.9954 27.4628 13.8963 27.597C13.448 27.6533 13.0277 27.8557 12.7788 28.2465C12.1236 29.2673 13.0644 30.6973 14.2637 30.4948C14.3657 30.4792 14.4655 30.4516 14.5611 30.4126C14.6564 30.3718 14.7453 30.3175 14.8251 30.2513C14.9927 30.1111 15.1189 29.9278 15.1904 29.7209C15.2692 29.5051 15.2867 29.2716 15.2411 29.0465C15.1919 28.8111 15.0535 28.6043 14.8553 28.4695C15.0858 28.5779 15.2654 28.772 15.3564 29.0107C15.4507 29.2565 15.475 29.5237 15.4264 29.7826C15.3793 30.0522 15.261 30.3042 15.0837 30.5122C14.9896 30.6191 14.8807 30.7121 14.7605 30.7882C14.6413 30.8634 14.5136 30.9241 14.3801 30.969C14.1094 31.0619 13.8213 31.0919 13.5374 31.0567C13.1388 30.9996 12.7629 30.8358 12.4491 30.5825C12.3911 30.5365 12.3355 30.4883 12.2816 30.4383C12.0681 30.2533 11.8743 30.0462 11.7034 29.8204C11.6267 29.7356 11.5488 29.6519 11.4674 29.5715C11.0832 29.1665 10.6299 28.834 10.129 28.5897C9.78359 28.4373 9.42209 28.3247 9.05149 28.2541C8.86499 28.2151 8.67649 28.187 8.48789 28.1632C8.46739 28.1611 8.42809 28.1542 8.37909 28.1457C8.22169 28.1182 7.96519 28.0735 7.91999 28.1155C8.50289 27.5765 9.13819 27.0978 9.81649 26.6866C10.513 26.2715 11.2608 25.9501 12.0407 25.7308C12.8492 25.5022 13.695 25.437 14.5288 25.5392C14.958 25.591 15.3784 25.7002 15.7788 25.8639C16.1983 26.0323 16.5855 26.2726 16.9232 26.5741C17.2573 26.8903 17.5274 27.2686 17.7184 27.6879C17.8909 28.0806 18.0195 28.4912 18.102 28.9122C18.1462 29.1388 18.1796 29.3877 18.214 29.6454C18.3711 30.8197 18.5526 32.1747 19.8984 32.4108C19.9839 32.4275 20.0702 32.4398 20.157 32.4477L20.4253 32.4541C20.6098 32.4409 20.7931 32.4145 20.9738 32.3751C21.3482 32.2867 21.7131 32.1616 22.0632 32.0017L22.0128 32.0421ZM11.7742 29.8994C11.8064 29.9364 11.839 29.973 11.872 30.0093C11.8585 29.9942 11.8451 29.979 11.8316 29.9639C11.8125 29.9424 11.7934 29.9209 11.7742 29.8994Z" fill="white"/>
</svg>
