<svg width="18" height="19" viewBox="0 0 18 19" fill="none" xmlns="http://www.w3.org/2000/svg">
<g id="65f5f851b55bafaaa9a16402_Github.svg" clip-path="url(#clip0_10_1313)">
<path id="Vector" d="M9.14871 1.1626C4.2942 1.1626 0.362305 5.0945 0.362305 9.94896C0.362305 13.837 2.8774 17.1208 6.36999 18.285C6.8093 18.3619 6.97405 18.0983 6.97405 17.8676C6.97405 17.659 6.96306 16.9671 6.96306 16.2312C4.75549 16.6376 4.18438 15.6931 4.00865 15.1988C3.9098 14.9462 3.48147 14.1664 3.10804 13.9577C2.80052 13.793 2.36121 13.3866 3.09706 13.3757C3.78899 13.3647 4.28322 14.0126 4.44797 14.2762C5.23874 15.6052 6.50178 15.2318 7.007 15.0012C7.08387 14.43 7.31452 14.0456 7.56712 13.8259C5.61216 13.6063 3.56933 12.8484 3.56933 9.48767C3.56933 8.53216 3.9098 7.74139 4.46993 7.12635C4.38207 6.90669 4.07454 6.00608 4.55779 4.79796C4.55779 4.79796 5.29365 4.56732 6.97405 5.69856C7.67696 5.50086 8.4238 5.40202 9.17064 5.40202C9.91747 5.40202 10.6643 5.50086 11.3672 5.69856C13.0476 4.55633 13.7835 4.79796 13.7835 4.79796C14.2668 6.00608 13.9592 6.90669 13.8713 7.12635C14.4315 7.74139 14.7719 8.52118 14.7719 9.48767C14.7719 12.8595 12.7181 13.6063 10.7631 13.8259C11.0817 14.1005 11.3562 14.6277 11.3562 15.4514C11.3562 16.6266 11.3453 17.5711 11.3453 17.8676C11.3453 18.0983 11.51 18.3729 11.9493 18.285C13.6935 17.6962 15.2092 16.5752 16.283 15.0798C17.3568 13.5844 17.9346 11.7899 17.9351 9.94896C17.9351 5.0945 14.0031 1.1626 9.14871 1.1626Z" fill="#0E0D0C"/>
</g>
<defs>
<clipPath id="clip0_10_1313">
<rect width="18" height="18" fill="white" transform="translate(0 0.580078)"/>
</clipPath>
</defs>
</svg>
