<svg width="104" height="104" viewBox="0 0 104 104" fill="none" xmlns="http://www.w3.org/2000/svg">
<g clip-path="url(#clip0_123_10530)">
<path d="M73.125 16.25H84.5C85.362 16.25 86.1886 16.5924 86.7981 17.2019C87.4076 17.8114 87.75 18.638 87.75 19.5V30.875" stroke="#4C82FB" stroke-width="9.75" stroke-linecap="round" stroke-linejoin="round"/>
<path d="M73.125 87.75H84.5C85.362 87.75 86.1886 87.4076 86.7981 86.7981C87.4076 86.1886 87.75 85.362 87.75 84.5V73.125" stroke="#4C82FB" stroke-width="9.75" stroke-linecap="round" stroke-linejoin="round"/>
<path d="M30.875 87.75H19.5C18.638 87.75 17.8114 87.4076 17.2019 86.7981C16.5924 86.1886 16.25 85.362 16.25 84.5V73.125" stroke="#4C82FB" stroke-width="9.75" stroke-linecap="round" stroke-linejoin="round"/>
<path d="M30.875 16.25H19.5C18.638 16.25 17.8114 16.5924 17.2019 17.2019C16.5924 17.8114 16.25 18.638 16.25 19.5V30.875" stroke="#4C82FB" stroke-width="9.75" stroke-linecap="round" stroke-linejoin="round"/>
<path d="M52 58.5C59.1797 58.5 65 52.6797 65 45.5C65 38.3203 59.1797 32.5 52 32.5C44.8203 32.5 39 38.3203 39 45.5C39 52.6797 44.8203 58.5 52 58.5Z" stroke="#4C82FB" stroke-width="9.75" stroke-linecap="round" stroke-linejoin="round"/>
<path d="M32.5 68.25C34.7705 65.2227 37.7146 62.7656 41.0992 61.0733C44.4838 59.381 48.2159 58.5 52 58.5C55.7841 58.5 59.5162 59.381 62.9008 61.0733C66.2854 62.7656 69.2295 65.2227 71.5 68.25" stroke="#4C82FB" stroke-width="9.75" stroke-linecap="round" stroke-linejoin="round"/>
</g>
<defs>
<clipPath id="clip0_123_10530">
<rect width="104" height="104" fill="white"/>
</clipPath>
</defs>
</svg>
