<svg width="49" height="49" viewBox="0 0 49 49" fill="none" xmlns="http://www.w3.org/2000/svg">
<g clip-path="url(#clip0_126_23530)">
<g clip-path="url(#clip1_126_23530)">
<path d="M17 15H19" stroke="white" stroke-width="3" stroke-linecap="round" stroke-linejoin="round"/>
<path d="M17 34H19" stroke="white" stroke-width="3" stroke-linecap="round" stroke-linejoin="round"/>
<path d="M21.5 15V12" stroke="white" stroke-width="3" stroke-linecap="round" stroke-linejoin="round"/>
<path d="M26.5 15V12" stroke="white" stroke-width="3" stroke-linecap="round" stroke-linejoin="round"/>
<path d="M21.5 37V34" stroke="white" stroke-width="3" stroke-linecap="round" stroke-linejoin="round"/>
<path d="M26.5 37V34" stroke="white" stroke-width="3" stroke-linecap="round" stroke-linejoin="round"/>
<path d="M19 24H28C29.3261 24 30.5979 24.5268 31.5355 25.4645C32.4732 26.4021 33 27.6739 33 29C33 30.3261 32.4732 31.5979 31.5355 32.5355C30.5979 33.4732 29.3261 34 28 34H19V15H26.5C27.6935 15 28.8381 15.4741 29.682 16.318C30.5259 17.1619 31 18.3065 31 19.5C31 20.6935 30.5259 21.8381 29.682 22.682C28.8381 23.5259 27.6935 24 26.5 24" stroke="white" stroke-width="3" stroke-linecap="round" stroke-linejoin="round"/>
</g>
</g>
<defs>
<clipPath id="clip0_126_23530">
<rect width="48" height="48" fill="white" transform="translate(0.693359 0.9375)"/>
</clipPath>
<clipPath id="clip1_126_23530">
<rect width="32" height="32" fill="white" transform="translate(9 9)"/>
</clipPath>
</defs>
</svg>
