<svg width="22" height="17" viewBox="0 0 22 17" fill="none" xmlns="http://www.w3.org/2000/svg">
<g id="6645ac6ce70dd21e56655cb5_discord.svg" clip-path="url(#clip0_10_1299)">
<g id="Mask group">
<mask id="mask0_10_1299" style="mask-type:luminance" maskUnits="userSpaceOnUse" x="0" y="0" width="22" height="17">
<g id="Group">
<path id="Vector" d="M21.2915 0.942261H0.708435V16.5423H21.2915V0.942261Z" fill="white"/>
</g>
</mask>
<g mask="url(#mask0_10_1299)">
<g id="Group_2">
<path id="Vector_2" d="M18.1443 2.2487C16.792 1.62961 15.3643 1.19036 13.8978 0.942261C13.6972 1.30098 13.5156 1.67006 13.3539 2.04798C11.7918 1.8126 10.2032 1.8126 8.64117 2.04798C8.4794 1.6701 8.29782 1.30103 8.09724 0.942261C6.62979 1.19246 5.20122 1.63271 3.84753 2.25194C1.16009 6.22807 0.431574 10.1054 0.795848 13.9277C2.36964 15.0905 4.1312 15.9748 6.00395 16.5423C6.42562 15.9751 6.79877 15.3734 7.11935 14.7436C6.51041 14.5162 5.9226 14.2356 5.36283 13.905C5.51013 13.7982 5.65424 13.6881 5.79343 13.5812C7.42227 14.3472 9.20004 14.7444 10.9999 14.7444C12.7999 14.7444 14.5776 14.3472 16.2064 13.5812C16.3473 13.6962 16.4914 13.8063 16.6371 13.905C16.0762 14.2361 15.4873 14.5173 14.8773 14.7453C15.1975 15.3747 15.5707 15.9759 15.9927 16.5423C17.8671 15.9771 19.63 15.0932 21.2041 13.9293C21.6315 9.49669 20.474 5.65496 18.1443 2.2487ZM7.58076 11.577C6.56571 11.577 5.72709 10.6559 5.72709 9.52259C5.72709 8.38933 6.53658 7.46007 7.57753 7.46007C8.61851 7.46007 9.45066 8.38933 9.43279 9.52259C9.41501 10.6559 8.61528 11.577 7.58076 11.577ZM14.4191 11.577C13.4024 11.577 12.5671 10.6559 12.5671 9.52259C12.5671 8.38933 13.3766 7.46007 14.4191 7.46007C15.4617 7.46007 16.2874 8.38933 16.2696 9.52259C16.2517 10.6559 15.4537 11.577 14.4191 11.577Z" fill="black"/>
</g>
</g>
</g>
</g>
<defs>
<clipPath id="clip0_10_1299">
<rect width="21.06" height="15.99" fill="white" transform="translate(0.469971 0.585083)"/>
</clipPath>
</defs>
</svg>
