<svg width="20" height="17" viewBox="0 0 20 17" fill="none" xmlns="http://www.w3.org/2000/svg">
<g id="65f5f868ad2b475c936facfe_Telegram.svg" clip-path="url(#clip0_10_1318)">
<path id="Vector" fill-rule="evenodd" clip-rule="evenodd" d="M2.55576 7.43954C7.41807 5.3211 10.6604 3.9245 12.2827 3.24974C16.9146 1.32313 17.8771 0.988464 18.5045 0.977413C18.6424 0.974982 18.9509 1.00918 19.1508 1.17133C19.3195 1.30825 19.3659 1.49321 19.3882 1.62302C19.4104 1.75284 19.438 2.04856 19.4161 2.27963C19.165 4.917 18.0789 11.3172 17.5264 14.2711C17.2926 15.521 16.8322 15.9401 16.3865 15.9811C15.4179 16.0702 14.6824 15.341 13.7443 14.726C12.2763 13.7638 11.447 13.1647 10.0221 12.2257C8.37532 11.1405 9.44284 10.5441 10.3813 9.56935C10.6269 9.31425 14.8946 5.43251 14.9772 5.08038C14.9875 5.03634 14.9971 4.87218 14.8995 4.78549C14.802 4.69881 14.6581 4.72845 14.5542 4.75203C14.407 4.78544 12.0619 6.33548 7.51885 9.40214C6.85319 9.85923 6.25026 10.0819 5.71006 10.0703C5.11453 10.0574 3.96896 9.73355 3.11735 9.45672C2.07282 9.11719 1.24265 8.93767 1.31493 8.36103C1.35259 8.06068 1.7662 7.75352 2.55576 7.43954Z" fill="#0E0D0C"/>
</g>
<defs>
<clipPath id="clip0_10_1318">
<rect width="19" height="16" fill="white" transform="translate(0.5 0.580078)"/>
</clipPath>
</defs>
</svg>
