<svg width="122" height="20" viewBox="0 0 122 20" fill="none" xmlns="http://www.w3.org/2000/svg">
<g clip-path="url(#clip0_1495_7569)">
<path d="M27.7282 14.2833V13.5259H30.0283V14.4909C30.0283 16.346 31.3868 17.3923 33.3715 17.3923C33.7807 17.4399 34.1953 17.3993 34.5874 17.2731C34.9795 17.1469 35.34 16.9381 35.6446 16.6608C35.9491 16.3834 36.1907 16.044 36.353 15.6654C36.5152 15.2868 36.5944 14.8778 36.5851 14.466C36.5851 9.92037 28.1201 11.3039 28.1201 5.34823C28.0827 4.6683 28.194 3.9884 28.4462 3.35588C28.6985 2.72336 29.0856 2.15343 29.5805 1.68579C30.0755 1.21815 30.6665 0.864052 31.3123 0.64815C31.9582 0.432248 32.6433 0.359738 33.32 0.43567C36.6898 0.43567 38.6292 2.36884 38.6292 5.29513V6.28826H36.3244V5.11244C36.3244 3.59776 35.1485 2.62961 33.32 2.62961C32.9552 2.57914 32.5838 2.60898 32.2317 2.71705C31.8796 2.82512 31.5554 3.0088 31.2817 3.25525C31.0081 3.5017 30.7916 3.80496 30.6473 4.14383C30.5031 4.48269 30.4347 4.84898 30.4468 5.21706C30.4468 9.24111 38.879 7.93411 38.9118 14.2567C38.8262 15.6796 38.2016 17.0163 37.165 17.9948C36.1284 18.9732 34.7579 19.5198 33.3325 19.5232C31.907 19.5266 30.5339 18.9865 29.4927 18.013C28.4515 17.0395 27.8205 15.7057 27.7282 14.2833ZM49.5895 12.4094V19.2021H47.2988V12.4282L42.5689 0.749537H45.0002L48.4746 9.55341L51.9224 0.749537H54.3256L49.5895 12.4094ZM67.0427 7.20956V5.72143C67.0427 3.73517 65.8153 2.63742 63.6729 2.63742C61.5039 2.63742 60.2766 3.73049 60.2766 5.72143V14.263C60.2512 14.6996 60.3235 15.1365 60.4881 15.5417C60.6528 15.9469 60.9057 16.3104 61.2284 16.6056C61.5511 16.9008 61.9356 17.1204 62.3539 17.2484C62.7721 17.3763 63.2137 17.4095 63.6464 17.3454C65.8153 17.3454 67.0427 16.2227 67.0427 14.263V11.7021H63.7322V9.52843H69.324V14.3083C69.324 17.4438 67.1816 19.5347 63.6807 19.5347C60.1532 19.5347 57.9843 17.4438 57.9843 14.3083V5.63555C57.9843 2.50001 60.1532 0.43567 63.6542 0.43567C67.1551 0.43567 69.324 2.50001 69.324 5.63555V7.19707L67.0427 7.20956ZM85.8543 0.78389V19.2099H83.8166L77.1816 5.36384V19.2099H75.1439V0.78389H77.1816L83.8166 14.708V0.776083L85.8543 0.78389ZM91.4993 14.3161V0.776083H93.7994V14.263C93.8254 15.0947 94.174 15.8836 94.7715 16.4627C95.369 17.0418 96.1684 17.3657 97.0005 17.3657C97.8326 17.3657 98.632 17.0418 99.2295 16.4627C99.827 15.8836 100.176 15.0947 100.202 14.263V0.776083H102.5V14.3083C102.425 15.7162 101.813 17.0417 100.79 18.0118C99.7667 18.9819 98.4104 19.5226 97.0005 19.5226C95.5906 19.5226 94.2343 18.9819 93.2112 18.0118C92.188 17.0417 91.5759 15.7162 91.5008 14.3083L91.4993 14.3161ZM121.546 19.2021H119.56V4.26921L115.458 19.1865H113.74L109.639 4.26921V19.1865H107.655V0.760468H110.345L114.604 14.8938L118.888 0.760468H121.554L121.546 19.2021ZM14.1132 5.40444C15.8465 5.40444 16.8116 4.66272 16.8116 3.44317V1.95972C16.8116 0.740167 15.8465 0.0078125 14.1132 0.0078125C12.3799 0.0078125 11.4149 0.740167 11.4149 1.95972V3.44317C11.4155 3.53456 11.4217 3.62582 11.4337 3.71643L4.8659 7.98252C4.24986 7.48724 3.46768 7.24644 2.67976 7.3095C0.944907 7.3095 -0.0185547 8.04185 -0.0185547 9.26141V10.7449C-0.0185547 11.9644 0.944907 12.7061 2.67976 12.7061C3.08741 12.7425 3.49817 12.6941 3.88622 12.564C4.27427 12.434 4.63121 12.225 4.9346 11.9504L11.4477 16.1665C11.4231 16.2957 11.4105 16.4269 11.4102 16.5584V18.0419C11.4102 19.2614 12.3737 20.0031 14.1086 20.0031C15.8434 20.0031 16.8069 19.2614 16.8069 18.0419V16.5584C16.8069 15.3389 15.8418 14.6065 14.1086 14.6065C13.3092 14.5404 12.516 14.7917 11.9006 15.3061L5.35153 11.0634C5.36844 10.9565 5.37732 10.8484 5.37807 10.7402V9.25672C5.37824 9.11195 5.36359 8.96753 5.33435 8.82574L11.8209 4.60962C12.1265 4.8984 12.4906 5.11812 12.8885 5.2539C13.2865 5.38968 13.7089 5.43836 14.1273 5.39663L14.1132 5.40444Z" fill="black"/>
<path d="M763.22 709.252C763.22 710.472 762.255 711.213 760.522 711.213L760.536 711.206C760.117 711.247 759.695 711.199 759.297 711.063C758.899 710.927 758.535 710.707 758.229 710.419L751.743 714.635C751.772 714.776 751.787 714.921 751.787 715.066V716.549C751.786 716.657 751.777 716.765 751.76 716.872L758.309 721.115C758.925 720.601 759.718 720.349 760.517 720.415C762.25 720.415 763.215 721.148 763.215 722.367V723.851C763.215 725.07 762.252 725.812 760.517 725.812C758.782 725.812 757.819 725.07 757.819 723.851V722.367C757.819 722.236 757.832 722.105 757.856 721.975L751.343 717.759C751.04 718.034 750.683 718.243 750.295 718.373C749.907 718.503 749.496 718.551 749.088 718.515C747.353 718.515 746.39 717.773 746.39 716.554V715.07C746.39 713.851 747.353 713.118 749.088 713.118C749.876 713.055 750.658 713.296 751.274 713.791L757.842 709.525C757.83 709.435 757.824 709.344 757.823 709.252V707.769C757.823 706.549 758.788 705.817 760.522 705.817C762.255 705.817 763.22 706.549 763.22 707.769V709.252Z" fill="black"/>
<path d="M14.1318 5.39663C15.8651 5.39663 16.8301 4.6549 16.8301 3.43535V1.95191C16.8301 0.732355 15.8651 0 14.1318 0C12.3985 0 11.4335 0.732355 11.4335 1.95191V3.43535C11.434 3.52675 11.4403 3.61801 11.4522 3.70862L4.88445 7.9747C4.26842 7.47943 3.48623 7.23863 2.69831 7.30169C0.963462 7.30169 0 8.03404 0 9.25359V10.737C0 11.9566 0.963462 12.6983 2.69831 12.6983C3.10596 12.7347 3.51673 12.6863 3.90478 12.5562C4.29282 12.4262 4.64976 12.2172 4.95316 11.9425L11.4663 16.1586C11.4416 16.2878 11.4291 16.4191 11.4288 16.5506V18.034C11.4288 19.2536 12.3923 19.9953 14.1271 19.9953C15.862 19.9953 16.8254 19.2536 16.8254 18.034V16.5506C16.8254 15.331 15.8604 14.5987 14.1271 14.5987C13.3278 14.5326 12.5346 14.7839 11.9191 15.2983L5.37008 11.0556C5.38699 10.9487 5.39587 10.8406 5.39663 10.7324V9.24891C5.39679 9.10413 5.38214 8.95972 5.35291 8.81793L11.8395 4.60181C12.1451 4.89058 12.5092 5.1103 12.9071 5.24609C13.305 5.38187 13.7275 5.43055 14.1459 5.38882L14.1318 5.39663Z" fill="#DF2A4F"/>
</g>
<defs>
<clipPath id="clip0_1495_7569">
<rect width="121.554" height="20" fill="white"/>
</clipPath>
</defs>
</svg>
