<svg width="24" height="25" viewBox="0 0 24 25" fill="none" xmlns="http://www.w3.org/2000/svg">
<rect y="0.47998" width="24" height="24" rx="12" fill="white"/>
<path d="M16.9034 7.95215H16.7466C14.5447 7.95215 13.2317 9.37611 12.337 10.6118C11.9942 11.0884 11.6747 11.5885 11.3726 12.071C10.7974 12.989 10.2513 13.848 9.60644 14.4718C8.9267 15.1308 8.07267 15.4838 7.1373 15.4838C6.37623 15.4603 5.66744 15.1367 5.13876 14.5777C4.61008 14.0187 4.31959 13.2773 4.31959 12.4947C4.31959 11.7121 4.63912 10.9236 5.18524 10.3646C5.73716 9.79976 6.475 9.48791 7.25931 9.48791H7.26512C7.58466 9.48791 7.95647 9.55263 8.32248 9.67031C8.3922 9.69385 8.4503 9.74681 8.47354 9.8233C8.49678 9.8998 8.48516 9.98217 8.43868 10.0469L6.53309 12.836C6.475 12.9184 6.46919 13.0243 6.51566 13.1125C6.56214 13.2008 6.64929 13.2537 6.74805 13.2537H7.82867C7.97391 13.2537 8.11334 13.1831 8.19468 13.0596L10.1584 10.1646C10.2397 10.0528 10.2862 9.92333 10.3152 9.78211C10.3385 9.64677 10.3385 9.50556 10.3152 9.37022C10.2862 9.23489 10.2281 9.10544 10.1525 8.99364C10.0712 8.88184 9.97245 8.78769 9.85626 8.7112C9.77492 8.66413 9.69359 8.61705 9.60644 8.56998C8.88603 8.16986 8.06686 7.95803 7.24769 7.95803C6.06831 7.95803 4.95866 8.42876 4.12206 9.28196C3.29708 10.1234 2.82068 11.2884 2.82068 12.4888C2.82068 13.6892 3.25641 14.7836 4.05815 15.6309C4.85989 16.4841 5.93469 16.9725 7.09083 17.0078C8.33411 17.0078 9.43215 16.5724 10.4431 15.6721C11.3435 14.8719 12.0349 13.8245 12.6159 12.9125C13.0632 12.2005 13.4873 11.5297 13.9521 10.9766C14.1148 10.7824 14.2716 10.6118 14.4285 10.4647C15.1315 9.79976 15.8693 9.48791 16.7524 9.48791H16.8628C17.6238 9.51144 18.3326 9.82919 18.8613 10.3941C19.3145 10.8766 19.605 11.5179 19.6689 12.1887C19.6805 12.2888 19.6863 12.3888 19.6863 12.4888C19.6863 13.2891 19.3784 14.0422 18.8206 14.6071C18.2687 15.172 17.5309 15.4838 16.7466 15.4838H16.7408C16.3341 15.4838 15.9448 15.3838 15.6834 15.3014C15.6137 15.2779 15.5556 15.2249 15.5324 15.1484C15.5091 15.0719 15.5208 14.9896 15.5672 14.919L17.467 12.1593C17.5251 12.0769 17.5309 11.971 17.4844 11.8827C17.438 11.7886 17.3508 11.7415 17.2521 11.7415H16.1714C16.0262 11.7415 15.8925 11.8121 15.8054 11.9357L13.8417 14.8013C13.7604 14.919 13.7139 15.0425 13.6849 15.1837C13.6616 15.3191 13.6616 15.4603 13.6849 15.5957C13.7139 15.731 13.772 15.8604 13.8476 15.9722C13.9231 16.084 14.0334 16.1841 14.1497 16.2547C14.231 16.3017 14.3065 16.3488 14.3879 16.3959C15.1083 16.796 15.9274 17.0078 16.7466 17.0078C17.9318 17.0078 19.0414 16.5371 19.878 15.6839C20.7146 14.8307 21.1794 13.7009 21.1794 12.4947C21.1794 11.2884 20.732 10.1646 19.9362 9.32903C19.1344 8.47584 18.0596 7.98745 16.9034 7.95215Z" fill="#6666FE"/>
</svg>
