
    <svg
      width="21"
      height="22"
      viewBox="0 0 21 22"
      fill="none"
      xmlns="http://www.w3.org/2000/svg"
    >
      <g clip-path="url(#clip0_33_1285)">
        <path
          d="M11.3392 12.26L9.44922 14.15"
          stroke="#6666FE"
          stroke-width="1.26"
          stroke-linecap="round"
          stroke-linejoin="round"
        />
        <path
          d="M8.81969 9.73999L6.92969 11.63"
          stroke="#6666FE"
          stroke-width="1.26"
          stroke-linecap="round"
          stroke-linejoin="round"
        />
        <path
          d="M5.03906 9.73999L11.3391 16.04"
          stroke="#6666FE"
          stroke-width="1.26"
          stroke-linecap="round"
          stroke-linejoin="round"
        />
        <path
          d="M4.57285 16.5078L1.89062 19.19"
          stroke="#6666FE"
          stroke-width="1.26"
          stroke-linecap="round"
          stroke-linejoin="round"
        />
        <path
          d="M10.3945 15.0951L8.11078 17.3788C7.75634 17.7332 7.27563 17.9323 6.77439 17.9323C6.27316 17.9323 5.79245 17.7332 5.43801 17.3788L3.70078 15.6392C3.34709 15.2849 3.14844 14.8047 3.14844 14.304C3.14844 13.8034 3.34709 13.3232 3.70078 12.9688L5.98453 10.6851"
          stroke="#6666FE"
          stroke-width="1.26"
          stroke-linecap="round"
          stroke-linejoin="round"
        />
        <path
          d="M8.82031 5.95996L15.1203 12.26"
          stroke="#6666FE"
          stroke-width="1.26"
          stroke-linecap="round"
          stroke-linejoin="round"
        />
        <path
          d="M15.5879 5.49228L18.2701 2.81006"
          stroke="#6666FE"
          stroke-width="1.26"
          stroke-linecap="round"
          stroke-linejoin="round"
        />
        <path
          d="M14.1756 11.3149L16.4594 9.03119C16.8138 8.67675 17.0129 8.19604 17.0129 7.6948C17.0129 7.19357 16.8138 6.71286 16.4594 6.35842L14.7198 4.62119C14.3654 4.2675 13.8852 4.06885 13.3846 4.06885C12.8839 4.06885 12.4037 4.2675 12.0494 4.62119L9.76562 6.90494"
          stroke="#6666FE"
          stroke-width="1.26"
          stroke-linecap="round"
          stroke-linejoin="round"
        />
      </g>
      <defs>
        <clipPath id="clip0_33_1285">
          <rect
            width="20.16"
            height="20.16"
            fill="white"
            transform="translate(0 0.919922)"
          />
        </clipPath>
      </defs>
    </svg>