
    <svg
      width="16"
      height="17"
      viewBox="0 0 16 17"
      fill="none"
      xmlns="http://www.w3.org/2000/svg"
    >
      <g clip-path="url(#clip0_97_155)">
        <path
          d="M14.1163 6.84227C13.8806 6.59602 13.6369 6.34227 13.545 6.11914C13.46 5.91477 13.455 5.57602 13.45 5.24789C13.4406 4.63789 13.4306 3.94664 12.95 3.46602C12.4694 2.98539 11.7781 2.97539 11.1681 2.96602C10.84 2.96102 10.5013 2.95602 10.2969 2.87102C10.0744 2.77914 9.82 2.53539 9.57375 2.29977C9.1425 1.88539 8.6525 1.41602 8 1.41602C7.3475 1.41602 6.85812 1.88539 6.42625 2.29977C6.18 2.53539 5.92625 2.77914 5.70312 2.87102C5.5 2.95602 5.16 2.96102 4.83187 2.96602C4.22187 2.97539 3.53062 2.98539 3.05 3.46602C2.56937 3.94664 2.5625 4.63789 2.55 5.24789C2.545 5.57602 2.54 5.91477 2.455 6.11914C2.36312 6.34164 2.11937 6.59602 1.88375 6.84227C1.46937 7.27352 1 7.76352 1 8.41602C1 9.06852 1.46937 9.55789 1.88375 9.98977C2.11937 10.236 2.36312 10.4898 2.455 10.7129C2.54 10.9173 2.545 11.256 2.55 11.5841C2.55937 12.1941 2.56937 12.8854 3.05 13.366C3.53062 13.8466 4.22187 13.8566 4.83187 13.866C5.16 13.871 5.49875 13.876 5.70312 13.961C5.92562 14.0529 6.18 14.2966 6.42625 14.5323C6.8575 14.9466 7.3475 15.416 8 15.416C8.6525 15.416 9.14187 14.9466 9.57375 14.5323C9.82 14.2966 10.0737 14.0529 10.2969 13.961C10.5013 13.876 10.84 13.871 11.1681 13.866C11.7781 13.8566 12.4694 13.8466 12.95 13.366C13.4306 12.8854 13.4406 12.1941 13.45 11.5841C13.455 11.256 13.46 10.9173 13.545 10.7129C13.6369 10.4904 13.8806 10.236 14.1163 9.98977C14.5306 9.55852 15 9.06852 15 8.41602C15 7.76352 14.5306 7.27414 14.1163 6.84227ZM10.8538 7.26977L7.35375 10.7698C7.30731 10.8163 7.25217 10.8531 7.19147 10.8783C7.13077 10.9035 7.06571 10.9164 7 10.9164C6.93429 10.9164 6.86923 10.9035 6.80853 10.8783C6.74783 10.8531 6.69269 10.8163 6.64625 10.7698L5.14625 9.26977C5.05243 9.17595 4.99972 9.0487 4.99972 8.91602C4.99972 8.78333 5.05243 8.65609 5.14625 8.56227C5.24007 8.46844 5.36732 8.41574 5.5 8.41574C5.63268 8.41574 5.75993 8.46844 5.85375 8.56227L7 9.70914L10.1462 6.56227C10.1927 6.51581 10.2479 6.47896 10.3086 6.45382C10.3692 6.42868 10.4343 6.41574 10.5 6.41574C10.5657 6.41574 10.6308 6.42868 10.6914 6.45382C10.7521 6.47896 10.8073 6.51581 10.8538 6.56227C10.9002 6.60872 10.9371 6.66387 10.9622 6.72457C10.9873 6.78526 11.0003 6.85032 11.0003 6.91602C11.0003 6.98171 10.9873 7.04677 10.9622 7.10746C10.9371 7.16816 10.9002 7.22331 10.8538 7.26977Z"
          fill="#66C61C"
        />
      </g>
      <defs>
        <clipPath id="clip0_97_155">
          <rect
            width="16"
            height="16"
            fill="white"
            transform="translate(0 0.416016)"
          />
        </clipPath>
      </defs>
    </svg>