<svg width="1366" height="242" viewBox="0 0 1366 242" fill="none" xmlns="http://www.w3.org/2000/svg">
<g opacity="0.08">
<path d="M465.365 127.983C457.257 114.791 446.111 104.786 431.928 97.9393C417.996 90.8416 402.294 87.2853 384.824 87.2853H226.645C206.712 87.2853 188.18 90.7678 171.019 97.7033C154.124 104.403 139.366 113.817 126.746 125.976C114.14 138.121 104.292 152.508 97.2298 169.109C90.1679 185.474 86.6443 203.211 86.6443 222.305C86.6443 241.4 90.1679 259.24 97.2298 275.856C104.292 292.221 114.14 306.608 126.746 319.003C139.616 331.399 154.492 341.064 171.402 348.014C186.75 354.005 203.218 357.311 220.807 357.93C222.871 358.004 224.935 358.048 227.028 358.048H322.534V142.046L375.167 142.193H386.77C391.207 142.193 395.453 143.064 399.316 144.673C403.444 146.37 407.145 148.878 410.226 151.992C416.123 157.953 419.75 166.143 419.75 175.203C419.75 184.264 416.064 192.571 410.093 198.548C406.879 201.765 402.987 204.317 398.667 205.985C394.982 207.431 390.972 208.213 386.77 208.213H367.501V262.974H384.824C402.294 262.974 417.996 259.55 431.928 252.718C446.111 245.62 457.257 235.468 465.365 222.291C473.725 209.113 477.897 193.383 477.897 175.129C477.897 156.876 473.725 140.91 465.365 127.983ZM259.434 299.628C249.968 303.126 239.044 304.867 226.645 304.867C215.042 304.867 204.324 302.889 194.475 298.92C184.892 294.951 176.563 289.373 169.501 282.172C162.689 274.985 157.279 266.309 153.239 256.142C149.45 245.974 147.563 234.701 147.563 222.305C147.563 209.91 149.45 198.99 153.239 188.823C157.279 178.656 162.689 169.98 169.501 162.793C176.563 155.607 184.892 150.147 194.475 146.429C204.324 142.459 215.042 140.482 226.645 140.482C239.044 140.482 249.968 142.356 259.434 146.119V299.628Z" fill="#F5F8FF"/>
<path d="M596.419 279.184C587.433 279.184 579.269 277.095 571.928 272.919C564.713 268.742 559.018 263.046 554.841 255.832C550.664 248.617 548.576 240.58 548.576 231.72C548.576 222.734 550.664 214.697 554.841 207.609C559.018 200.394 564.713 194.699 571.928 190.522C579.269 186.345 587.433 184.257 596.419 184.257C603.507 184.257 610.089 185.649 616.164 188.433C622.366 191.091 627.619 194.952 631.922 200.015L618.252 213.874C615.594 210.71 612.367 208.368 608.57 206.849C604.899 205.204 600.849 204.381 596.419 204.381C591.23 204.381 586.61 205.584 582.56 207.988C578.636 210.267 575.535 213.431 573.257 217.481C571.105 221.531 570.029 226.278 570.029 231.72C570.029 237.036 571.105 241.783 573.257 245.959C575.535 250.01 578.636 253.237 582.56 255.642C586.61 257.92 591.23 259.059 596.419 259.059C600.849 259.059 604.899 258.3 608.57 256.781C612.367 255.136 615.594 252.731 618.252 249.567L631.922 263.426C627.619 268.489 622.366 272.412 616.164 275.197C610.089 277.855 603.507 279.184 596.419 279.184ZM686.892 279.184C678.032 279.184 669.995 277.095 662.781 272.919C655.566 268.615 649.807 262.856 645.504 255.642C641.327 248.427 639.239 240.39 639.239 231.53C639.239 222.67 641.327 214.697 645.504 207.609C649.807 200.521 655.566 194.888 662.781 190.712C669.995 186.408 678.032 184.257 686.892 184.257C695.879 184.257 703.979 186.345 711.194 190.522C718.408 194.699 724.104 200.394 728.28 207.609C732.584 214.697 734.736 222.67 734.736 231.53C734.736 240.39 732.584 248.427 728.28 255.642C724.104 262.856 718.408 268.615 711.194 272.919C703.979 277.095 695.879 279.184 686.892 279.184ZM686.892 259.059C692.082 259.059 696.638 257.92 700.562 255.642C704.612 253.237 707.713 249.946 709.865 245.769C712.143 241.593 713.282 236.846 713.282 231.53C713.282 226.214 712.143 221.531 709.865 217.481C707.586 213.431 704.485 210.267 700.562 207.988C696.638 205.584 692.082 204.381 686.892 204.381C681.829 204.381 677.273 205.584 673.223 207.988C669.299 210.267 666.198 213.431 663.92 217.481C661.768 221.531 660.692 226.214 660.692 231.53C660.692 236.846 661.768 241.593 663.92 245.769C666.198 249.946 669.299 253.237 673.223 255.642C677.273 257.92 681.829 259.059 686.892 259.059ZM752.103 277.285V186.155H772.987V277.285H752.103ZM812.666 277.285V222.987C812.666 216.912 810.768 212.228 806.971 208.938C803.174 205.52 798.491 203.812 792.921 203.812C789.124 203.812 785.707 204.571 782.669 206.09C779.758 207.609 777.417 209.824 775.645 212.735C773.873 215.519 772.987 218.937 772.987 222.987L764.823 218.43C764.823 211.469 766.342 205.457 769.379 200.394C772.417 195.331 776.531 191.408 781.72 188.623C786.909 185.712 792.732 184.257 799.187 184.257C805.642 184.257 811.464 185.649 816.653 188.433C821.843 191.218 825.956 195.142 828.994 200.204C832.031 205.267 833.55 211.343 833.55 218.43V277.285H812.666ZM873.23 277.285V222.987C873.23 216.912 871.331 212.228 867.534 208.938C863.737 205.52 859.054 203.812 853.485 203.812C849.815 203.812 846.46 204.571 843.423 206.09C840.385 207.609 837.98 209.824 836.208 212.735C834.436 215.519 833.55 218.937 833.55 222.987L821.779 218.43C822.412 211.469 824.437 205.457 827.855 200.394C831.272 195.331 835.639 191.408 840.955 188.623C846.397 185.712 852.346 184.257 858.801 184.257C865.383 184.257 871.331 185.649 876.647 188.433C881.963 191.218 886.203 195.142 889.368 200.204C892.532 205.267 894.114 211.343 894.114 218.43V277.285H873.23ZM964.422 279.184C957.461 279.184 951.259 277.728 945.817 274.817C940.374 271.78 936.071 267.666 932.906 262.477C929.869 257.287 928.35 251.402 928.35 244.82V218.62C928.35 212.039 929.932 206.153 933.096 200.964C936.261 195.774 940.564 191.724 946.006 188.813C951.449 185.775 957.588 184.257 964.422 184.257C972.649 184.257 980.054 186.408 986.635 190.712C993.344 194.888 998.596 200.584 1002.39 207.799C1006.32 214.886 1008.28 222.924 1008.28 231.91C1008.28 240.77 1006.32 248.807 1002.39 256.022C998.596 263.11 993.344 268.742 986.635 272.919C980.054 277.095 972.649 279.184 964.422 279.184ZM915.63 315.256V186.155H936.514V210.646L932.906 232.859L936.514 254.882V315.256H915.63ZM961.005 259.439C966.068 259.439 970.498 258.3 974.295 256.022C978.218 253.617 981.256 250.326 983.408 246.149C985.686 241.972 986.825 237.163 986.825 231.72C986.825 226.278 985.686 221.468 983.408 217.291C981.256 213.114 978.218 209.887 974.295 207.609C970.498 205.204 966.068 204.001 961.005 204.001C955.942 204.001 951.449 205.204 947.525 207.609C943.602 209.887 940.564 213.114 938.412 217.291C936.261 221.468 935.185 226.278 935.185 231.72C935.185 237.163 936.261 241.972 938.412 246.149C940.564 250.326 943.602 253.617 947.525 256.022C951.449 258.3 955.942 259.439 961.005 259.439ZM1025.95 277.285V186.155H1046.83V277.285H1025.95ZM1036.39 169.448C1032.85 169.448 1029.87 168.246 1027.47 165.841C1025.19 163.436 1024.05 160.462 1024.05 156.918C1024.05 153.374 1025.19 150.399 1027.47 147.994C1029.87 145.59 1032.85 144.387 1036.39 144.387C1040.06 144.387 1043.04 145.59 1045.32 147.994C1047.59 150.399 1048.73 153.374 1048.73 156.918C1048.73 160.462 1047.59 163.436 1045.32 165.841C1043.04 168.246 1040.06 169.448 1036.39 169.448ZM1070.26 277.285V140.59H1091.14V277.285H1070.26ZM1156.15 279.184C1147.29 279.184 1139.25 277.095 1132.04 272.919C1124.83 268.615 1119.07 262.856 1114.76 255.642C1110.59 248.427 1108.5 240.39 1108.5 231.53C1108.5 222.67 1110.59 214.697 1114.76 207.609C1119.07 200.521 1124.83 194.888 1132.04 190.712C1139.25 186.408 1147.29 184.257 1156.15 184.257C1165.14 184.257 1173.24 186.345 1180.45 190.522C1187.67 194.699 1193.36 200.394 1197.54 207.609C1201.84 214.697 1204 222.67 1204 231.53C1204 240.39 1201.84 248.427 1197.54 255.642C1193.36 262.856 1187.67 268.615 1180.45 272.919C1173.24 277.095 1165.14 279.184 1156.15 279.184ZM1156.15 259.059C1161.34 259.059 1165.9 257.92 1169.82 255.642C1173.87 253.237 1176.97 249.946 1179.12 245.769C1181.4 241.593 1182.54 236.846 1182.54 231.53C1182.54 226.214 1181.4 221.531 1179.12 217.481C1176.85 213.431 1173.74 210.267 1169.82 207.988C1165.9 205.584 1161.34 204.381 1156.15 204.381C1151.09 204.381 1146.53 205.584 1142.48 207.988C1138.56 210.267 1135.46 213.431 1133.18 217.481C1131.03 221.531 1129.95 226.214 1129.95 231.53C1129.95 236.846 1131.03 241.593 1133.18 245.769C1135.46 249.946 1138.56 253.237 1142.48 255.642C1146.53 257.92 1151.09 259.059 1156.15 259.059ZM1232.63 277.285V148.184H1253.51V277.285H1232.63ZM1210.79 205.141V186.155H1275.34V205.141H1210.79Z" fill="#F5F8FF"/>
</g>
</svg>
