<svg width="48" height="48" viewBox="0 0 48 48" fill="none" xmlns="http://www.w3.org/2000/svg">
<g id="linkedin-logo-duotone 1" clip-path="url(#clip0_33_27534)">
<path id="Vector" opacity="0.2" d="M46.1539 3.69186V44.3072C46.1539 44.7969 45.9594 45.2664 45.6132 45.6127C45.2669 45.9589 44.7974 46.1534 44.3077 46.1534H3.69235C3.20271 46.1534 2.73314 45.9589 2.38692 45.6127C2.0407 45.2664 1.84619 44.7969 1.84619 44.3072V3.69186C1.84619 3.20223 2.0407 2.73265 2.38692 2.38643C2.73314 2.04021 3.20271 1.8457 3.69235 1.8457H44.3077C44.7974 1.8457 45.2669 2.04021 45.6132 2.38643C45.9594 2.73265 46.1539 3.20223 46.1539 3.69186Z" fill="white"/>
<path id="Vector_2" d="M44.3077 0H3.69231C2.71305 0 1.77389 0.38901 1.08145 1.08145C0.38901 1.77389 0 2.71305 0 3.69231V44.3077C0 45.287 0.38901 46.2261 1.08145 46.9185C1.77389 47.611 2.71305 48 3.69231 48H44.3077C45.287 48 46.2261 47.611 46.9185 46.9185C47.611 46.2261 48 45.287 48 44.3077V3.69231C48 2.71305 47.611 1.77389 46.9185 1.08145C46.2261 0.38901 45.287 0 44.3077 0ZM44.3077 44.3077H3.69231V3.69231H44.3077V44.3077ZM16.6154 20.3077V35.0769C16.6154 35.5666 16.4209 36.0361 16.0747 36.3824C15.7284 36.7286 15.2589 36.9231 14.7692 36.9231C14.2796 36.9231 13.81 36.7286 13.4638 36.3824C13.1176 36.0361 12.9231 35.5666 12.9231 35.0769V20.3077C12.9231 19.8181 13.1176 19.3485 13.4638 19.0023C13.81 18.656 14.2796 18.4615 14.7692 18.4615C15.2589 18.4615 15.7284 18.656 16.0747 19.0023C16.4209 19.3485 16.6154 19.8181 16.6154 20.3077ZM36.9231 26.7692V35.0769C36.9231 35.5666 36.7286 36.0361 36.3824 36.3824C36.0361 36.7286 35.5666 36.9231 35.0769 36.9231C34.5873 36.9231 34.1177 36.7286 33.7715 36.3824C33.4253 36.0361 33.2308 35.5666 33.2308 35.0769V26.7692C33.2308 25.5452 32.7445 24.3712 31.879 23.5057C31.0134 22.6401 29.8395 22.1538 28.6154 22.1538C27.3913 22.1538 26.2174 22.6401 25.3518 23.5057C24.4863 24.3712 24 25.5452 24 26.7692V35.0769C24 35.5666 23.8055 36.0361 23.4593 36.3824C23.1131 36.7286 22.6435 36.9231 22.1538 36.9231C21.6642 36.9231 21.1946 36.7286 20.8484 36.3824C20.5022 36.0361 20.3077 35.5666 20.3077 35.0769V20.3077C20.31 19.8555 20.4782 19.4199 20.7803 19.0834C21.0825 18.747 21.4977 18.5332 21.947 18.4825C22.3964 18.4319 22.8487 18.5479 23.2182 18.8086C23.5877 19.0693 23.8486 19.4566 23.9515 19.8969C25.2004 19.0497 26.6565 18.5587 28.1634 18.4766C29.6703 18.3945 31.1711 18.7244 32.5047 19.4309C33.8382 20.1374 34.9541 21.1938 35.7326 22.4867C36.511 23.7796 36.9226 25.2601 36.9231 26.7692ZM17.5385 13.8462C17.5385 14.3939 17.376 14.9293 17.0718 15.3847C16.7675 15.8401 16.335 16.195 15.829 16.4046C15.323 16.6142 14.7662 16.669 14.229 16.5622C13.6918 16.4553 13.1984 16.1916 12.8111 15.8043C12.4238 15.417 12.1601 14.9236 12.0532 14.3864C11.9464 13.8492 12.0012 13.2924 12.2108 12.7864C12.4204 12.2804 12.7753 11.8479 13.2307 11.5436C13.6861 11.2393 14.2215 11.0769 14.7692 11.0769C15.5037 11.0769 16.208 11.3687 16.7274 11.888C17.2467 12.4073 17.5385 13.1117 17.5385 13.8462Z" fill="white"/>
</g>
<defs>
<clipPath id="clip0_33_27534">
<rect width="48" height="48" fill="white"/>
</clipPath>
</defs>
</svg>
