<svg width="201" height="66" viewBox="0 0 201 66" fill="none" xmlns="http://www.w3.org/2000/svg">
<path d="M68.4762 18.7378C67.283 16.7966 65.643 15.3244 63.556 14.317C61.506 13.2726 59.1956 12.7493 56.6249 12.7493H33.3497C30.4167 12.7493 27.6898 13.2617 25.1646 14.2822C22.6785 15.268 20.507 16.6533 18.65 18.4425C16.7952 20.2294 15.346 22.3465 14.3069 24.7892C13.2677 27.1972 12.7493 29.8071 12.7493 32.6168C12.7493 35.4265 13.2677 38.0516 14.3069 40.4965C15.346 42.9045 16.7952 45.0215 18.65 46.8454C20.5438 48.6693 22.7327 50.0915 25.221 51.1142C27.4793 51.9958 29.9025 52.4821 32.4906 52.5733C32.7943 52.5842 33.098 52.5907 33.4061 52.5907H47.4593V20.807L55.2039 20.8287H56.9112C57.5642 20.8287 58.189 20.9568 58.7574 21.1935C59.3648 21.4432 59.9093 21.8123 60.3627 22.2705C61.2305 23.1477 61.7641 24.3528 61.7641 25.686C61.7641 27.0191 61.2218 28.2416 60.3432 29.121C59.8703 29.5943 59.2975 29.97 58.6619 30.2153C58.1196 30.4281 57.5295 30.5432 56.9112 30.5432H54.0759V38.6009H56.6249C59.1956 38.6009 61.506 38.0972 63.556 37.0919C65.643 36.0475 67.283 34.5536 68.4762 32.6146C69.7062 30.6756 70.3201 28.361 70.3201 25.6751C70.3201 22.9892 69.7062 20.6398 68.4762 18.7378ZM38.1743 43.9945C36.7816 44.5091 35.1741 44.7653 33.3497 44.7653C31.6424 44.7653 30.0652 44.4743 28.6161 43.8902C27.206 43.3062 25.9803 42.4854 24.9412 41.4258C23.9389 40.3684 23.1427 39.0916 22.5483 37.5956C21.9908 36.0996 21.7131 34.4407 21.7131 32.6168C21.7131 30.7929 21.9908 29.1861 22.5483 27.6901C23.1427 26.194 23.9389 24.9173 24.9412 23.8599C25.9803 22.8024 27.206 21.9991 28.6161 21.4519C30.0652 20.8678 31.6424 20.5769 33.3497 20.5769C35.1741 20.5769 36.7816 20.8526 38.1743 21.4063V43.9945Z" fill="#0258FD"/>
<path d="M87.7601 41.0286C86.4378 41.0286 85.2365 40.7213 84.1563 40.1067C83.0947 39.4921 82.2567 38.6541 81.6421 37.5925C81.0275 36.5309 80.7202 35.3483 80.7202 34.0446C80.7202 32.7223 81.0275 31.5397 81.6421 30.4967C82.2567 29.4351 83.0947 28.597 84.1563 27.9825C85.2365 27.3679 86.4378 27.0606 87.7601 27.0606C88.803 27.0606 89.7715 27.2654 90.6654 27.6752C91.578 28.0663 92.3509 28.6343 92.9841 29.3793L90.9727 31.4186C90.5816 30.953 90.1067 30.6085 89.548 30.385C89.0079 30.1428 88.4119 30.0218 87.7601 30.0218C86.9965 30.0218 86.3167 30.1987 85.7207 30.5526C85.1434 30.8878 84.6871 31.3534 84.3519 31.9494C84.0353 32.5454 83.8769 33.2438 83.8769 34.0446C83.8769 34.8268 84.0353 35.5252 84.3519 36.1398C84.6871 36.7358 85.1434 37.2107 85.7207 37.5645C86.3167 37.8998 86.9965 38.0674 87.7601 38.0674C88.4119 38.0674 89.0079 37.9557 89.548 37.7322C90.1067 37.4901 90.5816 37.1362 90.9727 36.6706L92.9841 38.7099C92.3509 39.4549 91.578 40.0322 90.6654 40.442C89.7715 40.8331 88.803 41.0286 87.7601 41.0286ZM101.073 41.0286C99.769 41.0286 98.5864 40.7213 97.5248 40.1067C96.4633 39.4735 95.6159 38.6261 94.9827 37.5645C94.3681 36.503 94.0608 35.3203 94.0608 34.0167C94.0608 32.713 94.3681 31.5397 94.9827 30.4967C95.6159 29.4538 96.4633 28.625 97.5248 28.0104C98.5864 27.3772 99.769 27.0606 101.073 27.0606C102.395 27.0606 103.587 27.3679 104.649 27.9825C105.71 28.597 106.548 29.4351 107.163 30.4967C107.796 31.5397 108.113 32.713 108.113 34.0167C108.113 35.3203 107.796 36.503 107.163 37.5645C106.548 38.6261 105.71 39.4735 104.649 40.1067C103.587 40.7213 102.395 41.0286 101.073 41.0286ZM101.073 38.0674C101.836 38.0674 102.507 37.8998 103.084 37.5645C103.68 37.2107 104.136 36.7265 104.453 36.1119C104.788 35.4973 104.956 34.7989 104.956 34.0167C104.956 33.2344 104.788 32.5454 104.453 31.9494C104.118 31.3534 103.661 30.8878 103.084 30.5526C102.507 30.1987 101.836 30.0218 101.073 30.0218C100.328 30.0218 99.6573 30.1987 99.0613 30.5526C98.484 30.8878 98.0277 31.3534 97.6925 31.9494C97.3758 32.5454 97.2175 33.2344 97.2175 34.0167C97.2175 34.7989 97.3758 35.4973 97.6925 36.1119C98.0277 36.7265 98.484 37.2107 99.0613 37.5645C99.6573 37.8998 100.328 38.0674 101.073 38.0674ZM110.668 40.7493V27.3399H113.741V40.7493H110.668ZM119.58 40.7493V32.7595C119.58 31.8656 119.3 31.1765 118.742 30.6923C118.183 30.1894 117.494 29.938 116.674 29.938C116.116 29.938 115.613 30.0497 115.166 30.2732C114.737 30.4967 114.393 30.8226 114.132 31.251C113.871 31.6607 113.741 32.1636 113.741 32.7595L112.54 32.0891C112.54 31.0647 112.763 30.1801 113.21 29.4351C113.657 28.6902 114.263 28.1128 115.026 27.7031C115.79 27.2747 116.646 27.0606 117.596 27.0606C118.546 27.0606 119.403 27.2654 120.166 27.6752C120.93 28.0849 121.535 28.6622 121.982 29.4072C122.429 30.1522 122.653 31.0461 122.653 32.0891V40.7493H119.58ZM128.491 40.7493V32.7595C128.491 31.8656 128.212 31.1765 127.653 30.6923C127.095 30.1894 126.405 29.938 125.586 29.938C125.046 29.938 124.552 30.0497 124.105 30.2732C123.658 30.4967 123.305 30.8226 123.044 31.251C122.783 31.6607 122.653 32.1636 122.653 32.7595L120.921 32.0891C121.014 31.0647 121.312 30.1801 121.815 29.4351C122.318 28.6902 122.96 28.1128 123.742 27.7031C124.543 27.2747 125.418 27.0606 126.368 27.0606C127.337 27.0606 128.212 27.2654 128.994 27.6752C129.776 28.0849 130.4 28.6622 130.866 29.4072C131.332 30.1522 131.564 31.0461 131.564 32.0891V40.7493H128.491ZM141.91 41.0286C140.886 41.0286 139.973 40.8145 139.172 40.3861C138.371 39.9391 137.738 39.3338 137.272 38.5702C136.826 37.8067 136.602 36.9406 136.602 35.9722V32.117C136.602 31.1485 136.835 30.2825 137.3 29.5189C137.766 28.7554 138.399 28.1594 139.2 27.731C140.001 27.2841 140.904 27.0606 141.91 27.0606C143.12 27.0606 144.21 27.3772 145.178 28.0104C146.166 28.625 146.938 29.4631 147.497 30.5246C148.074 31.5676 148.363 32.7502 148.363 34.0725C148.363 35.3762 148.074 36.5588 147.497 37.6204C146.938 38.6634 146.166 39.4921 145.178 40.1067C144.21 40.7213 143.12 41.0286 141.91 41.0286ZM134.73 46.3365V27.3399H137.803V30.9437L137.272 34.2122L137.803 37.4528V46.3365H134.73ZM141.407 38.1233C142.152 38.1233 142.804 37.9557 143.363 37.6204C143.94 37.2666 144.387 36.7823 144.704 36.1677C145.039 35.5531 145.206 34.8454 145.206 34.0446C145.206 33.2438 145.039 32.536 144.704 31.9214C144.387 31.3069 143.94 30.8319 143.363 30.4967C142.804 30.1428 142.152 29.9659 141.407 29.9659C140.662 29.9659 140.001 30.1428 139.424 30.4967C138.846 30.8319 138.399 31.3069 138.083 31.9214C137.766 32.536 137.608 33.2438 137.608 34.0446C137.608 34.8454 137.766 35.5531 138.083 36.1677C138.399 36.7823 138.846 37.2666 139.424 37.6204C140.001 37.9557 140.662 38.1233 141.407 38.1233ZM150.963 40.7493V27.3399H154.036V40.7493H150.963ZM152.5 24.8815C151.978 24.8815 151.541 24.7046 151.187 24.3508C150.852 23.9969 150.684 23.5592 150.684 23.0378C150.684 22.5163 150.852 22.0786 151.187 21.7248C151.541 21.3709 151.978 21.194 152.5 21.194C153.04 21.194 153.478 21.3709 153.813 21.7248C154.148 22.0786 154.316 22.5163 154.316 23.0378C154.316 23.5592 154.148 23.9969 153.813 24.3508C153.478 24.7046 153.04 24.8815 152.5 24.8815ZM157.483 40.7493V20.6353H160.556V40.7493H157.483ZM170.122 41.0286C168.818 41.0286 167.636 40.7213 166.574 40.1067C165.512 39.4735 164.665 38.6261 164.032 37.5645C163.417 36.503 163.11 35.3203 163.11 34.0167C163.11 32.713 163.417 31.5397 164.032 30.4967C164.665 29.4538 165.512 28.625 166.574 28.0104C167.636 27.3772 168.818 27.0606 170.122 27.0606C171.444 27.0606 172.636 27.3679 173.698 27.9825C174.759 28.597 175.597 29.4351 176.212 30.4967C176.845 31.5397 177.162 32.713 177.162 34.0167C177.162 35.3203 176.845 36.503 176.212 37.5645C175.597 38.6261 174.759 39.4735 173.698 40.1067C172.636 40.7213 171.444 41.0286 170.122 41.0286ZM170.122 38.0674C170.885 38.0674 171.556 37.8998 172.133 37.5645C172.729 37.2107 173.186 36.7265 173.502 36.1119C173.837 35.4973 174.005 34.7989 174.005 34.0167C174.005 33.2344 173.837 32.5454 173.502 31.9494C173.167 31.3534 172.711 30.8878 172.133 30.5526C171.556 30.1987 170.885 30.0218 170.122 30.0218C169.377 30.0218 168.706 30.1987 168.11 30.5526C167.533 30.8878 167.077 31.3534 166.742 31.9494C166.425 32.5454 166.267 33.2344 166.267 34.0167C166.267 34.7989 166.425 35.4973 166.742 36.1119C167.077 36.7265 167.533 37.2107 168.11 37.5645C168.706 37.8998 169.377 38.0674 170.122 38.0674ZM181.375 40.7493V21.7527H184.448V40.7493H181.375ZM178.162 30.1335V27.3399H187.66V30.1335H178.162Z" fill="#00040A"/>
<path d="M106.064 48.8871C105.843 48.8871 105.642 48.842 105.462 48.752C105.286 48.6579 105.145 48.5291 105.039 48.3654C104.932 48.2017 104.873 48.0156 104.861 47.8069V46.9293C104.873 46.7165 104.932 46.5304 105.039 46.3708C105.149 46.2071 105.292 46.0803 105.468 45.9903C105.648 45.8962 105.847 45.8491 106.064 45.8491C106.33 45.8491 106.569 45.9166 106.782 46.0516C106.999 46.1867 107.168 46.3687 107.291 46.5979C107.414 46.827 107.475 47.0848 107.475 47.3712C107.475 47.6576 107.414 47.9153 107.291 48.1444C107.168 48.3736 106.999 48.5556 106.782 48.6907C106.569 48.8216 106.33 48.8871 106.064 48.8871ZM104.529 50.047V45.9105H105.082V46.6776L104.977 47.3834L105.082 48.0954V50.047H104.529ZM105.972 48.3654C106.156 48.3654 106.317 48.3224 106.456 48.2365C106.596 48.1506 106.706 48.034 106.788 47.8867C106.87 47.7353 106.911 47.5614 106.911 47.365C106.911 47.1727 106.87 47.0009 106.788 46.8495C106.706 46.6981 106.596 46.5815 106.456 46.4997C106.317 46.4137 106.158 46.3708 105.978 46.3708C105.794 46.3708 105.632 46.4137 105.493 46.4997C105.354 46.5815 105.245 46.6981 105.168 46.8495C105.09 47.0009 105.051 47.1748 105.051 47.3712C105.051 47.5635 105.088 47.7353 105.161 47.8867C105.239 48.034 105.348 48.1506 105.487 48.2365C105.63 48.3224 105.792 48.3654 105.972 48.3654ZM108.187 48.8257V45.9105H108.74V48.8257H108.187ZM108.74 47.1625L108.531 47.0704C108.531 46.6981 108.617 46.4015 108.789 46.1805C108.961 45.9596 109.208 45.8491 109.531 45.8491C109.679 45.8491 109.812 45.8757 109.93 45.9289C110.049 45.978 110.159 46.0619 110.262 46.1805L109.9 46.5549C109.838 46.4894 109.771 46.4424 109.697 46.4137C109.623 46.3851 109.538 46.3708 109.439 46.3708C109.235 46.3708 109.067 46.4362 108.936 46.5672C108.805 46.6981 108.74 46.8965 108.74 47.1625ZM111.991 48.8871C111.7 48.8871 111.438 48.8216 111.205 48.6907C110.972 48.5556 110.788 48.3736 110.653 48.1444C110.518 47.9153 110.45 47.6555 110.45 47.365C110.45 47.0786 110.516 46.8208 110.647 46.5917C110.782 46.3626 110.962 46.1826 111.187 46.0516C111.416 45.9166 111.672 45.8491 111.954 45.8491C112.224 45.8491 112.461 45.9105 112.666 46.0332C112.875 46.156 113.036 46.3258 113.151 46.5426C113.269 46.7595 113.329 47.005 113.329 47.2791C113.329 47.32 113.327 47.365 113.323 47.4141C113.319 47.4591 113.31 47.5123 113.298 47.5737H110.837V47.1134H113.003L112.801 47.2914C112.801 47.095 112.766 46.9293 112.697 46.7943C112.627 46.6551 112.529 46.5488 112.402 46.4751C112.275 46.3974 112.122 46.3585 111.942 46.3585C111.754 46.3585 111.588 46.3994 111.445 46.4813C111.301 46.5631 111.191 46.6776 111.113 46.8249C111.035 46.9722 110.997 47.1461 110.997 47.3466C110.997 47.5512 111.038 47.7312 111.119 47.8867C111.201 48.0381 111.318 48.1567 111.469 48.2426C111.621 48.3245 111.794 48.3654 111.991 48.3654C112.154 48.3654 112.304 48.3367 112.439 48.2795C112.578 48.2222 112.697 48.1363 112.795 48.0217L113.151 48.3838C113.012 48.5475 112.84 48.6723 112.635 48.7582C112.435 48.8441 112.22 48.8871 111.991 48.8871ZM114.969 48.8257L113.631 45.9105H114.245L115.319 48.3715H114.963L116.043 45.9105H116.633L115.295 48.8257H114.969ZM117.196 48.8257V45.9105H117.748V48.8257H117.196ZM117.472 45.3275C117.369 45.3275 117.286 45.2947 117.22 45.2293C117.155 45.1597 117.122 45.0738 117.122 44.9715C117.122 44.8733 117.155 44.7915 117.22 44.726C117.286 44.6564 117.369 44.6217 117.472 44.6217C117.574 44.6217 117.658 44.6564 117.723 44.726C117.789 44.7915 117.822 44.8733 117.822 44.9715C117.822 45.0738 117.789 45.1597 117.723 45.2293C117.658 45.2947 117.574 45.3275 117.472 45.3275ZM119.98 48.8871C119.693 48.8871 119.435 48.8195 119.206 48.6845C118.977 48.5495 118.795 48.3674 118.66 48.1383C118.525 47.9051 118.458 47.6453 118.458 47.3589C118.458 47.0766 118.525 46.8229 118.66 46.5979C118.795 46.3687 118.977 46.1867 119.206 46.0516C119.435 45.9166 119.693 45.8491 119.98 45.8491C120.262 45.8491 120.518 45.9166 120.747 46.0516C120.98 46.1826 121.164 46.3626 121.299 46.5917C121.434 46.8208 121.502 47.0766 121.502 47.3589C121.502 47.6453 121.434 47.9051 121.299 48.1383C121.164 48.3674 120.98 48.5495 120.747 48.6845C120.518 48.8195 120.262 48.8871 119.98 48.8871ZM119.98 48.3531C120.164 48.3531 120.327 48.3102 120.471 48.2242C120.614 48.1383 120.726 48.0217 120.808 47.8744C120.89 47.723 120.931 47.5512 120.931 47.3589C120.931 47.1707 120.888 47.0029 120.802 46.8556C120.72 46.7083 120.608 46.5938 120.464 46.5119C120.325 46.426 120.164 46.3831 119.98 46.3831C119.796 46.3831 119.632 46.426 119.489 46.5119C119.345 46.5938 119.233 46.7083 119.151 46.8556C119.069 47.0029 119.028 47.1707 119.028 47.3589C119.028 47.5512 119.069 47.723 119.151 47.8744C119.233 48.0217 119.345 48.1383 119.489 48.2242C119.632 48.3102 119.796 48.3531 119.98 48.3531ZM123.382 48.8871C123.145 48.8871 122.93 48.8339 122.738 48.7275C122.55 48.617 122.402 48.4656 122.296 48.2733C122.19 48.081 122.136 47.858 122.136 47.6044V45.9105H122.689V47.5798C122.689 47.7394 122.715 47.8785 122.768 47.9972C122.826 48.1117 122.908 48.1997 123.014 48.2611C123.12 48.3224 123.245 48.3531 123.388 48.3531C123.605 48.3531 123.775 48.2856 123.898 48.1506C124.02 48.0115 124.082 47.8212 124.082 47.5798V45.9105H124.634V47.6044C124.634 47.858 124.581 48.081 124.475 48.2733C124.368 48.4656 124.221 48.617 124.033 48.7275C123.849 48.8339 123.632 48.8871 123.382 48.8871ZM126.387 48.8871C126.223 48.8871 126.068 48.8666 125.921 48.8257C125.777 48.7807 125.645 48.7193 125.522 48.6416C125.399 48.5597 125.293 48.4636 125.203 48.3531L125.559 47.9972C125.665 48.1281 125.788 48.2263 125.927 48.2917C126.066 48.3531 126.221 48.3838 126.393 48.3838C126.565 48.3838 126.698 48.3552 126.792 48.2979C126.886 48.2365 126.933 48.1526 126.933 48.0463C126.933 47.9399 126.894 47.858 126.817 47.8008C126.743 47.7394 126.647 47.6903 126.528 47.6535C126.41 47.6126 126.283 47.5737 126.148 47.5369C126.017 47.4959 125.892 47.4448 125.773 47.3834C125.655 47.3221 125.557 47.2382 125.479 47.1318C125.405 47.0254 125.368 46.8843 125.368 46.7083C125.368 46.5324 125.411 46.381 125.497 46.2542C125.583 46.1232 125.702 46.023 125.853 45.9535C126.009 45.8839 126.195 45.8491 126.412 45.8491C126.641 45.8491 126.843 45.89 127.019 45.9719C127.199 46.0496 127.347 46.1683 127.461 46.3278L127.105 46.6838C127.023 46.5774 126.921 46.4956 126.798 46.4383C126.68 46.381 126.545 46.3524 126.393 46.3524C126.234 46.3524 126.111 46.381 126.025 46.4383C125.943 46.4915 125.902 46.5672 125.902 46.6654C125.902 46.7636 125.939 46.8393 126.013 46.8925C126.086 46.9456 126.183 46.9906 126.301 47.0275C126.424 47.0643 126.551 47.1032 126.682 47.1441C126.813 47.1809 126.937 47.232 127.056 47.2975C127.175 47.363 127.271 47.4509 127.345 47.5614C127.422 47.6719 127.461 47.8171 127.461 47.9972C127.461 48.2713 127.363 48.4881 127.167 48.6477C126.974 48.8073 126.714 48.8871 126.387 48.8871ZM128.165 48.8257V44.4437H128.718V48.8257H128.165ZM130.569 48.8502L129.305 45.9105H129.919L130.858 48.212H130.661L131.649 45.9105H132.263L130.901 48.8502H130.569ZM129.735 50.047L130.594 48.2856L130.901 48.8502L130.348 50.047H129.735ZM141.124 48.8257V44.5664H141.529L141.701 45.2354V48.8257H141.124ZM144.069 48.8257L141.455 45.3336L141.529 44.5664L144.149 48.0524L144.069 48.8257ZM144.069 48.8257L143.898 48.1935V44.5664H144.475V48.8257H144.069ZM146.819 48.8871C146.528 48.8871 146.266 48.8216 146.033 48.6907C145.8 48.5556 145.616 48.3736 145.481 48.1444C145.346 47.9153 145.278 47.6555 145.278 47.365C145.278 47.0786 145.344 46.8208 145.475 46.5917C145.61 46.3626 145.79 46.1826 146.015 46.0516C146.244 45.9166 146.5 45.8491 146.782 45.8491C147.052 45.8491 147.289 45.9105 147.494 46.0332C147.702 46.156 147.864 46.3258 147.979 46.5426C148.097 46.7595 148.157 47.005 148.157 47.2791C148.157 47.32 148.155 47.365 148.151 47.4141C148.146 47.4591 148.138 47.5123 148.126 47.5737H145.665V47.1134H147.831L147.629 47.2914C147.629 47.095 147.594 46.9293 147.525 46.7943C147.455 46.6551 147.357 46.5488 147.23 46.4751C147.103 46.3974 146.95 46.3585 146.77 46.3585C146.581 46.3585 146.416 46.3994 146.273 46.4813C146.129 46.5631 146.019 46.6776 145.941 46.8249C145.863 46.9722 145.825 47.1461 145.825 47.3466C145.825 47.5512 145.865 47.7312 145.947 47.8867C146.029 48.0381 146.146 48.1567 146.297 48.2426C146.448 48.3245 146.622 48.3654 146.819 48.3654C146.982 48.3654 147.132 48.3367 147.267 48.2795C147.406 48.2222 147.525 48.1363 147.623 48.0217L147.979 48.3838C147.84 48.5475 147.668 48.6723 147.463 48.7582C147.263 48.8441 147.048 48.8871 146.819 48.8871ZM150.67 48.8257L149.761 47.5491L149.657 47.4509L148.509 45.9105H149.178L150.007 47.0459L150.111 47.1318L151.339 48.8257H150.67ZM148.454 48.8257L149.657 47.2055L149.97 47.6105L149.105 48.8257H148.454ZM150.154 47.4448L149.835 47.052L150.639 45.9105H151.283L150.154 47.4448ZM153.194 48.8871C152.903 48.8871 152.641 48.8216 152.408 48.6907C152.175 48.5556 151.991 48.3736 151.856 48.1444C151.721 47.9153 151.653 47.6555 151.653 47.365C151.653 47.0786 151.719 46.8208 151.85 46.5917C151.985 46.3626 152.165 46.1826 152.39 46.0516C152.619 45.9166 152.875 45.8491 153.157 45.8491C153.427 45.8491 153.664 45.9105 153.869 46.0332C154.078 46.156 154.239 46.3258 154.354 46.5426C154.472 46.7595 154.532 47.005 154.532 47.2791C154.532 47.32 154.53 47.365 154.526 47.4141C154.521 47.4591 154.513 47.5123 154.501 47.5737H152.04V47.1134H154.206L154.004 47.2914C154.004 47.095 153.969 46.9293 153.9 46.7943C153.83 46.6551 153.732 46.5488 153.605 46.4751C153.478 46.3974 153.325 46.3585 153.145 46.3585C152.956 46.3585 152.791 46.3994 152.648 46.4813C152.504 46.5631 152.394 46.6776 152.316 46.8249C152.238 46.9722 152.2 47.1461 152.2 47.3466C152.2 47.5512 152.24 47.7312 152.322 47.8867C152.404 48.0381 152.521 48.1567 152.672 48.2426C152.823 48.3245 152.997 48.3654 153.194 48.3654C153.357 48.3654 153.507 48.3367 153.642 48.2795C153.781 48.2222 153.9 48.1363 153.998 48.0217L154.354 48.3838C154.215 48.5475 154.043 48.6723 153.838 48.7582C153.638 48.8441 153.423 48.8871 153.194 48.8871ZM155.22 48.8257V45.9105H155.772V48.8257H155.22ZM155.772 47.1625L155.564 47.0704C155.564 46.6981 155.649 46.4015 155.821 46.1805C155.993 45.9596 156.241 45.8491 156.564 45.8491C156.711 45.8491 156.844 45.8757 156.963 45.9289C157.081 45.978 157.192 46.0619 157.294 46.1805L156.932 46.5549C156.871 46.4894 156.803 46.4424 156.73 46.4137C156.656 46.3851 156.57 46.3708 156.472 46.3708C156.267 46.3708 156.1 46.4362 155.969 46.5672C155.838 46.6981 155.772 46.8965 155.772 47.1625ZM158.913 48.8871C158.647 48.8871 158.406 48.8216 158.189 48.6907C157.972 48.5556 157.8 48.3736 157.673 48.1444C157.55 47.9153 157.489 47.6576 157.489 47.3712C157.489 47.0848 157.55 46.827 157.673 46.5979C157.8 46.3687 157.97 46.1867 158.183 46.0516C158.399 45.9166 158.643 45.8491 158.913 45.8491C159.134 45.8491 159.33 45.8962 159.502 45.9903C159.678 46.0803 159.819 46.2071 159.926 46.3708C160.032 46.5304 160.091 46.7165 160.104 46.9293V47.8069C160.091 48.0156 160.032 48.2017 159.926 48.3654C159.823 48.5291 159.684 48.6579 159.508 48.752C159.336 48.842 159.138 48.8871 158.913 48.8871ZM159.005 48.3654C159.279 48.3654 159.5 48.2733 159.668 48.0892C159.836 47.901 159.919 47.6617 159.919 47.3712C159.919 47.1707 159.881 46.9968 159.803 46.8495C159.729 46.6981 159.623 46.5815 159.484 46.4997C159.345 46.4137 159.183 46.3708 158.999 46.3708C158.815 46.3708 158.651 46.4137 158.508 46.4997C158.369 46.5856 158.258 46.7042 158.176 46.8556C158.099 47.0029 158.06 47.1727 158.06 47.365C158.06 47.5614 158.099 47.7353 158.176 47.8867C158.258 48.034 158.371 48.1506 158.514 48.2365C158.657 48.3224 158.821 48.3654 159.005 48.3654ZM159.883 48.8257V48.0401L159.987 47.3282L159.883 46.6224V45.9105H160.441V48.8257H159.883ZM161.429 48.8257V44.5664H162.006V48.8257H161.429ZM163.478 48.8257V48.2979H164.663C164.978 48.2979 165.254 48.2304 165.491 48.0954C165.728 47.9562 165.912 47.766 166.043 47.5246C166.178 47.2832 166.246 47.005 166.246 46.6899C166.246 46.379 166.178 46.1028 166.043 45.8614C165.908 45.62 165.722 45.4318 165.485 45.2968C165.248 45.1617 164.973 45.0942 164.663 45.0942H163.484V44.5664H164.675C164.986 44.5664 165.272 44.6196 165.534 44.726C165.8 44.8324 166.029 44.9817 166.221 45.174C166.418 45.3663 166.569 45.5914 166.676 45.8491C166.786 46.1069 166.841 46.3892 166.841 46.6961C166.841 46.9988 166.786 47.2811 166.676 47.543C166.569 47.8008 166.42 48.0258 166.228 48.2181C166.035 48.4104 165.806 48.5597 165.54 48.6661C165.278 48.7725 164.994 48.8257 164.687 48.8257H163.478ZM163.098 48.8257V44.5664H163.674V48.8257H163.098Z" fill="#00040A"/>
</svg>
